G04*
G04 #@! TF.GenerationSoftware,Altium Limited,Altium Designer,19.1.8 (144)*
G04*
G04 Layer_Physical_Order=1*
G04 Layer_Color=255*
%FSLAX25Y25*%
%MOIN*%
G70*
G01*
G75*
%ADD11C,0.01000*%
%ADD16R,0.05906X0.05118*%
%ADD17R,0.03543X0.03740*%
%ADD18R,0.03543X0.03740*%
%ADD19R,0.05118X0.05906*%
%ADD20R,0.03150X0.08071*%
%ADD21O,0.06890X0.02362*%
%ADD35C,0.02000*%
%ADD36C,0.07284*%
%ADD37C,0.05906*%
%ADD38R,0.05906X0.05906*%
%ADD39R,0.05906X0.05906*%
%ADD40C,0.18898*%
%ADD41C,0.07087*%
%ADD42C,0.05000*%
D11*
X125900Y135000D02*
X135000D01*
X383500Y25000D02*
X394600Y36100D01*
X212500Y25000D02*
X383500D01*
X205000Y32500D02*
X212500Y25000D01*
X215000Y65630D02*
X219843Y70472D01*
X215000Y51240D02*
Y65630D01*
Y51240D02*
X217500Y48740D01*
X84260Y128740D02*
X92000D01*
X79000Y134000D02*
X84260Y128740D01*
X49000Y134000D02*
X79000D01*
X43724Y128724D02*
X49000Y134000D01*
X41322Y128724D02*
X43724D01*
X40157Y127559D02*
X41322Y128724D01*
X381500Y105000D02*
X384500Y102000D01*
X375600Y105000D02*
X381500D01*
X367500Y113100D02*
X375600Y105000D01*
X205000Y32500D02*
Y41260D01*
X250000Y47500D02*
Y120000D01*
X243760Y41260D02*
X250000Y47500D01*
X237500Y41260D02*
X243760D01*
X367200Y60000D02*
X380000D01*
X244600Y182600D02*
X367200Y60000D01*
X390000Y120000D02*
X394600Y115400D01*
X78760Y40000D02*
X95000D01*
X77500Y41260D02*
X78760Y40000D01*
X40400Y55900D02*
X42500Y58000D01*
X40400Y42807D02*
Y55900D01*
X38853Y41260D02*
X40400Y42807D01*
X35000Y41260D02*
X38853D01*
X38953D02*
X45000D01*
X68760Y231260D02*
X80000D01*
X52500Y215000D02*
X68760Y231260D01*
X52500Y207776D02*
Y215000D01*
X110000Y210000D02*
Y215000D01*
X107500Y207500D02*
X110000Y210000D01*
X92500Y207500D02*
X107500D01*
X91260Y208740D02*
X92500Y207500D01*
X91260Y208740D02*
Y215000D01*
X42500Y58000D02*
Y60000D01*
X40157Y65157D02*
Y70472D01*
X35000Y60000D02*
X40157Y65157D01*
X35000Y48740D02*
Y60000D01*
X117480Y143420D02*
X125900Y135000D01*
X117480Y143420D02*
Y215000D01*
X350000Y217500D02*
X370000D01*
X336460D02*
X350000D01*
Y216260D02*
Y217500D01*
Y216260D02*
X350000Y90600D01*
X376000Y64600D01*
X155000Y270000D02*
X160000Y265000D01*
Y182600D02*
Y265000D01*
X362500Y227500D02*
X370000D01*
X360000Y230000D02*
X362500Y227500D01*
X360000Y230000D02*
Y242500D01*
X356259Y246240D02*
X360000Y242500D01*
X350000Y246240D02*
X356259D01*
X343740D02*
X350000D01*
X325000Y227500D02*
X343740Y246240D01*
X316850Y227500D02*
X325000D01*
X331460Y222500D02*
X336460Y217500D01*
X375000Y130000D02*
X380000D01*
X372500Y132500D02*
X375000Y130000D01*
X372500Y132500D02*
Y162500D01*
X387728Y60000D02*
X390000D01*
X383128Y64600D02*
X387728Y60000D01*
X380000Y170000D02*
Y262500D01*
X377000Y265500D02*
X380000Y262500D01*
X276000Y265500D02*
X377000D01*
X301700Y217500D02*
X311700Y227500D01*
X292300Y217500D02*
X301700D01*
X282300Y227500D02*
X292300Y217500D01*
X316850Y219350D02*
Y222500D01*
X312500Y215000D02*
X316850Y219350D01*
X288400Y215000D02*
X312500D01*
X280900Y222500D02*
X288400Y215000D01*
X380000Y274500D02*
X385000Y269500D01*
X385000Y121500D01*
X383500Y120000D02*
X385000Y121500D01*
X372500Y162500D02*
X380000Y170000D01*
X375000Y182500D02*
Y225500D01*
X367500Y175000D02*
X375000Y182500D01*
X367500Y113100D02*
Y175000D01*
X373000Y227500D02*
X375000Y225500D01*
X57500Y48740D02*
Y70472D01*
X67500Y41260D02*
X77500D01*
X394600Y36100D02*
Y115400D01*
X195000Y41260D02*
X205000D01*
X227500D02*
X237500D01*
X167500Y121260D02*
X176060D01*
X182359Y127559D01*
X200157D01*
X89186Y239626D02*
X97500D01*
X88300Y238740D02*
X89186Y239626D01*
X80000Y238740D02*
X88300D01*
X60000Y263600D02*
Y282500D01*
Y263600D02*
X62500Y261100D01*
Y242224D02*
Y261100D01*
X45000Y263600D02*
Y282500D01*
X42500Y261100D02*
X45000Y263600D01*
X42500Y242224D02*
Y261100D01*
X160000Y182600D02*
X244600D01*
X370000Y227500D02*
X373000D01*
X384500Y71100D02*
Y102000D01*
Y71100D02*
X385600Y70000D01*
X390000D01*
X311700Y227500D02*
X316850D01*
X274350D02*
X282300D01*
X380000Y120000D02*
X383500D01*
X286000Y274500D02*
X380000D01*
X285000Y273500D02*
X286000Y274500D01*
X285000Y270000D02*
Y273500D01*
X275000Y266500D02*
X276000Y265500D01*
X275000Y266500D02*
Y270000D01*
X274350Y222500D02*
X280900D01*
X376000Y64600D02*
X383128D01*
X316850Y222500D02*
X331460D01*
X93760Y223900D02*
Y230374D01*
X91260Y221400D02*
X93760Y223900D01*
X91260Y215000D02*
Y221400D01*
X42500Y199440D02*
Y207776D01*
X41260Y198200D02*
X42500Y199440D01*
X41260Y190000D02*
Y198200D01*
X25000Y48740D02*
X35000D01*
X57500Y70472D02*
X59843D01*
X57500Y48740D02*
X67500D01*
X217500D02*
X227500D01*
X200157Y50898D02*
Y70472D01*
X198000Y48740D02*
X200157Y50898D01*
X195000Y48740D02*
X198000D01*
X185000D02*
X195000D01*
D16*
X80000Y238740D02*
D03*
Y231260D02*
D03*
X227500Y41260D02*
D03*
Y48740D02*
D03*
X350000Y246240D02*
D03*
Y238760D02*
D03*
Y216260D02*
D03*
Y223740D02*
D03*
X35000Y41260D02*
D03*
Y48740D02*
D03*
X67500Y41260D02*
D03*
Y48740D02*
D03*
X195000Y41260D02*
D03*
Y48740D02*
D03*
X57500Y41260D02*
D03*
Y48740D02*
D03*
X25000Y41260D02*
D03*
Y48740D02*
D03*
X77500Y41260D02*
D03*
Y48740D02*
D03*
X45000Y41260D02*
D03*
Y48740D02*
D03*
X92000Y128740D02*
D03*
Y121260D02*
D03*
X185000Y41260D02*
D03*
Y48740D02*
D03*
X217500Y41260D02*
D03*
Y48740D02*
D03*
X167500Y121260D02*
D03*
Y128740D02*
D03*
X237500Y41260D02*
D03*
Y48740D02*
D03*
X205000Y41260D02*
D03*
Y48740D02*
D03*
D17*
X97500Y239626D02*
D03*
X93760Y230374D02*
D03*
D18*
X101240D02*
D03*
D19*
X48740Y190000D02*
D03*
X41260D02*
D03*
X110000Y215000D02*
D03*
X117480D02*
D03*
X98740D02*
D03*
X91260D02*
D03*
X278760Y247500D02*
D03*
X286240D02*
D03*
D20*
X42500Y207776D02*
D03*
X52500D02*
D03*
X62500D02*
D03*
Y242224D02*
D03*
X52500D02*
D03*
X42500D02*
D03*
D21*
X255650Y237500D02*
D03*
Y232500D02*
D03*
Y227500D02*
D03*
Y222500D02*
D03*
X274350Y237500D02*
D03*
Y232500D02*
D03*
Y227500D02*
D03*
Y222500D02*
D03*
X298150Y237500D02*
D03*
Y232500D02*
D03*
Y227500D02*
D03*
Y222500D02*
D03*
X316850Y237500D02*
D03*
Y232500D02*
D03*
Y227500D02*
D03*
Y222500D02*
D03*
D35*
X217500Y36700D02*
Y41260D01*
Y30000D02*
Y36700D01*
X98740Y229202D02*
X99042Y229504D01*
X100469D01*
X101240Y230276D01*
Y230374D01*
X98740Y215000D02*
Y229202D01*
X237500Y48740D02*
Y72500D01*
X230000Y80000D02*
X237500Y72500D01*
X218000Y80000D02*
X230000D01*
X210000Y72000D02*
X218000Y80000D01*
X210000Y70472D02*
Y72000D01*
Y74000D02*
Y125000D01*
X278760Y237500D02*
Y247500D01*
X15000Y45000D02*
X18740Y41260D01*
X15000Y152500D02*
X48740Y186240D01*
X15000Y45000D02*
Y152500D01*
X102500Y125000D02*
X107500Y130000D01*
X102500Y121000D02*
Y125000D01*
Y97500D02*
Y121000D01*
X102240Y121260D02*
X102500Y121000D01*
X92000Y121260D02*
X102240D01*
X77862Y127559D02*
X84162Y121260D01*
X92000D01*
X59843Y127559D02*
X77862D01*
X155000Y176500D02*
Y232500D01*
X140000Y247500D02*
X155000Y232500D01*
X140000Y247500D02*
Y273000D01*
X172500Y140000D02*
X211843D01*
X167500Y135000D02*
X172500Y140000D01*
X167500Y128740D02*
Y135000D01*
X154200Y130000D02*
X166240D01*
X107500D02*
X154200D01*
X166240D02*
X167500Y128740D01*
X148200Y136000D02*
X154200Y130000D01*
X211843Y140000D02*
X219843Y132000D01*
X212559Y127559D02*
X219843D01*
X210000Y125000D02*
X212559Y127559D01*
X57500Y30000D02*
X182500D01*
X185000Y32500D01*
Y41260D01*
X18740D02*
X25000D01*
X257000Y44500D02*
X374500D01*
X257000D02*
X265000Y52500D01*
X247500Y35000D02*
X257000Y44500D01*
X374500D02*
X380000Y50000D01*
X240000Y175500D02*
X265000Y150500D01*
Y52500D02*
Y150500D01*
X57500Y30000D02*
Y41260D01*
X25000Y30000D02*
X57500D01*
X25000D02*
Y41260D01*
X91100Y86100D02*
X102500Y97500D01*
X60100Y86100D02*
X91100D01*
X77500Y72500D02*
X91100Y86100D01*
X70000Y235000D02*
X72500Y237500D01*
X65000Y235000D02*
X70000D01*
X48740Y218740D02*
X65000Y235000D01*
X48740Y190000D02*
Y218740D01*
X260000Y247500D02*
X277500D01*
X250000Y257500D02*
X260000Y247500D01*
X250000Y257500D02*
Y276200D01*
X323828Y232500D02*
X325000Y233672D01*
Y242500D01*
X327500Y245000D01*
X316850Y232500D02*
X323828D01*
X316850Y237500D02*
Y249350D01*
X72500Y267500D02*
X85000Y280000D01*
X72500Y237500D02*
Y267500D01*
X133000Y280000D02*
X140000Y273000D01*
X85000Y280000D02*
X133000D01*
X132500Y280000D02*
X246200Y280000D01*
X250000Y276200D01*
X155000Y176500D02*
X156000Y175500D01*
X245000Y235500D02*
Y270000D01*
X252500Y237500D02*
X255650D01*
X316850Y249350D02*
Y250650D01*
X322500Y255000D02*
X355800D01*
X316850Y249350D02*
X322500Y255000D01*
X355800D02*
X364500Y246300D01*
X312500Y255000D02*
X316850Y250650D01*
X282500Y255000D02*
X312500D01*
X278760Y251260D02*
X282500Y255000D01*
X286240Y232500D02*
X298150D01*
X274350D02*
X286240D01*
Y247500D01*
X364500Y240000D02*
Y246300D01*
Y240000D02*
X367000Y237500D01*
X370000D01*
X350000Y226240D02*
Y232100D01*
Y238760D01*
X219200Y35000D02*
X247500D01*
X217500Y36700D02*
X219200Y35000D01*
X120000Y230374D02*
X144000D01*
X101240D02*
X120000D01*
X50000Y76000D02*
X60100Y86100D01*
X278760Y247500D02*
Y251260D01*
X255650Y237500D02*
X274350D01*
X278760D01*
X48740Y186240D02*
Y190000D01*
X156000Y175500D02*
X240000D01*
X144000Y230374D02*
X148200Y226174D01*
Y136000D02*
Y226174D01*
X255650Y232500D02*
X274350D01*
X255650Y227500D02*
Y232500D01*
Y222500D02*
Y227500D01*
X298150Y232500D02*
X316850D01*
X298150D02*
Y237500D01*
Y227500D02*
Y232500D01*
Y222500D02*
Y227500D01*
X248000Y232500D02*
X255650D01*
X245000Y235500D02*
X248000Y232500D01*
X120000Y230374D02*
X125000Y235374D01*
Y270000D01*
X77500Y48740D02*
Y72500D01*
X50000Y50740D02*
Y70472D01*
X48000Y48740D02*
X50000Y50740D01*
X45000Y48740D02*
X48000D01*
X50000Y70472D02*
Y76000D01*
X219843Y127559D02*
Y132000D01*
X210000Y50740D02*
Y70472D01*
X208000Y48740D02*
X210000Y50740D01*
X205000Y48740D02*
X208000D01*
D36*
X60000Y282500D02*
D03*
X45000D02*
D03*
D37*
X370000Y247500D02*
D03*
Y237500D02*
D03*
Y227500D02*
D03*
X295000Y270000D02*
D03*
X285000D02*
D03*
X275000D02*
D03*
X265000D02*
D03*
X255000D02*
D03*
X380000Y90000D02*
D03*
Y80000D02*
D03*
Y70000D02*
D03*
Y60000D02*
D03*
Y50000D02*
D03*
Y40000D02*
D03*
Y150000D02*
D03*
Y140000D02*
D03*
Y130000D02*
D03*
Y120000D02*
D03*
Y110000D02*
D03*
Y100000D02*
D03*
X390000Y89970D02*
D03*
Y80000D02*
D03*
Y70000D02*
D03*
Y60000D02*
D03*
Y50000D02*
D03*
Y150000D02*
D03*
Y140000D02*
D03*
Y130000D02*
D03*
Y120000D02*
D03*
Y110000D02*
D03*
Y100000D02*
D03*
X175000Y270000D02*
D03*
X165000D02*
D03*
X155000D02*
D03*
X145000D02*
D03*
X135000D02*
D03*
D38*
X370000Y217500D02*
D03*
X390000Y40000D02*
D03*
D39*
X245000Y270000D02*
D03*
X125000D02*
D03*
D40*
X187953Y100000D02*
D03*
X232047D02*
D03*
X72047D02*
D03*
X27953D02*
D03*
D41*
X219843Y127559D02*
D03*
X200157D02*
D03*
X210000Y70472D02*
D03*
X219843D02*
D03*
X200157D02*
D03*
X40157D02*
D03*
X59843D02*
D03*
X50000D02*
D03*
X40157Y127559D02*
D03*
X59843D02*
D03*
D42*
X135000Y135000D02*
D03*
X217500Y30000D02*
D03*
X182500D02*
D03*
X250000Y120000D02*
D03*
X95000Y40000D02*
D03*
X42500Y60000D02*
D03*
X327500Y245000D02*
D03*
X350000Y232100D02*
D03*
M02*
