G04*
G04 #@! TF.GenerationSoftware,Altium Limited,Altium Designer,19.1.8 (144)*
G04*
G04 Layer_Color=8421504*
%FSLAX25Y25*%
%MOIN*%
G70*
G01*
G75*
%ADD16R,0.05906X0.05118*%
%ADD17R,0.03543X0.03740*%
%ADD18R,0.03543X0.03740*%
%ADD19R,0.05118X0.05906*%
%ADD20R,0.03150X0.08071*%
%ADD21O,0.06890X0.02362*%
D16*
X80000Y238740D02*
D03*
Y231260D02*
D03*
X227500Y41260D02*
D03*
Y48740D02*
D03*
X350000Y246240D02*
D03*
Y238760D02*
D03*
Y216260D02*
D03*
Y223740D02*
D03*
X35000Y41260D02*
D03*
Y48740D02*
D03*
X67500Y41260D02*
D03*
Y48740D02*
D03*
X195000Y41260D02*
D03*
Y48740D02*
D03*
X57500Y41260D02*
D03*
Y48740D02*
D03*
X25000Y41260D02*
D03*
Y48740D02*
D03*
X77500Y41260D02*
D03*
Y48740D02*
D03*
X45000Y41260D02*
D03*
Y48740D02*
D03*
X92000Y128740D02*
D03*
Y121260D02*
D03*
X185000Y41260D02*
D03*
Y48740D02*
D03*
X217500Y41260D02*
D03*
Y48740D02*
D03*
X167500Y121260D02*
D03*
Y128740D02*
D03*
X237500Y41260D02*
D03*
Y48740D02*
D03*
X205000Y41260D02*
D03*
Y48740D02*
D03*
D17*
X97500Y239626D02*
D03*
X93760Y230374D02*
D03*
D18*
X101240D02*
D03*
D19*
X48740Y190000D02*
D03*
X41260D02*
D03*
X110000Y215000D02*
D03*
X117480D02*
D03*
X98740D02*
D03*
X91260D02*
D03*
X278760Y247500D02*
D03*
X286240D02*
D03*
D20*
X42500Y207776D02*
D03*
X52500D02*
D03*
X62500D02*
D03*
Y242224D02*
D03*
X52500D02*
D03*
X42500D02*
D03*
D21*
X255650Y237500D02*
D03*
Y232500D02*
D03*
Y227500D02*
D03*
Y222500D02*
D03*
X274350Y237500D02*
D03*
Y232500D02*
D03*
Y227500D02*
D03*
Y222500D02*
D03*
X298150Y237500D02*
D03*
Y232500D02*
D03*
Y227500D02*
D03*
Y222500D02*
D03*
X316850Y237500D02*
D03*
Y232500D02*
D03*
Y227500D02*
D03*
Y222500D02*
D03*
M02*
