G04*
G04 #@! TF.GenerationSoftware,Altium Limited,Altium Designer,19.1.8 (144)*
G04*
G04 Layer_Color=8388736*
%FSLAX25Y25*%
%MOIN*%
G70*
G01*
G75*
%ADD22R,0.06706X0.05918*%
%ADD23R,0.04343X0.04540*%
%ADD24R,0.04343X0.04540*%
%ADD25R,0.05918X0.06706*%
%ADD26R,0.03950X0.08871*%
%ADD27O,0.07690X0.03162*%
%ADD28C,0.08083*%
%ADD29C,0.06706*%
%ADD30R,0.06706X0.06706*%
%ADD31R,0.06706X0.06706*%
%ADD32C,0.19698*%
%ADD33C,0.07887*%
%ADD34C,0.05800*%
D22*
X80000Y238740D02*
D03*
Y231260D02*
D03*
X227500Y41260D02*
D03*
Y48740D02*
D03*
X350000Y246240D02*
D03*
Y238760D02*
D03*
Y216260D02*
D03*
Y223740D02*
D03*
X35000Y41260D02*
D03*
Y48740D02*
D03*
X67500Y41260D02*
D03*
Y48740D02*
D03*
X195000Y41260D02*
D03*
Y48740D02*
D03*
X57500Y41260D02*
D03*
Y48740D02*
D03*
X25000Y41260D02*
D03*
Y48740D02*
D03*
X77500Y41260D02*
D03*
Y48740D02*
D03*
X45000Y41260D02*
D03*
Y48740D02*
D03*
X92000Y128740D02*
D03*
Y121260D02*
D03*
X185000Y41260D02*
D03*
Y48740D02*
D03*
X217500Y41260D02*
D03*
Y48740D02*
D03*
X167500Y121260D02*
D03*
Y128740D02*
D03*
X237500Y41260D02*
D03*
Y48740D02*
D03*
X205000Y41260D02*
D03*
Y48740D02*
D03*
D23*
X97500Y239626D02*
D03*
X93760Y230374D02*
D03*
D24*
X101240D02*
D03*
D25*
X48740Y190000D02*
D03*
X41260D02*
D03*
X110000Y215000D02*
D03*
X117480D02*
D03*
X98740D02*
D03*
X91260D02*
D03*
X278760Y247500D02*
D03*
X286240D02*
D03*
D26*
X42500Y207776D02*
D03*
X52500D02*
D03*
X62500D02*
D03*
Y242224D02*
D03*
X52500D02*
D03*
X42500D02*
D03*
D27*
X255650Y237500D02*
D03*
Y232500D02*
D03*
Y227500D02*
D03*
Y222500D02*
D03*
X274350Y237500D02*
D03*
Y232500D02*
D03*
Y227500D02*
D03*
Y222500D02*
D03*
X298150Y237500D02*
D03*
Y232500D02*
D03*
Y227500D02*
D03*
Y222500D02*
D03*
X316850Y237500D02*
D03*
Y232500D02*
D03*
Y227500D02*
D03*
Y222500D02*
D03*
D28*
X60000Y282500D02*
D03*
X45000D02*
D03*
D29*
X370000Y247500D02*
D03*
Y237500D02*
D03*
Y227500D02*
D03*
X295000Y270000D02*
D03*
X285000D02*
D03*
X275000D02*
D03*
X265000D02*
D03*
X255000D02*
D03*
X380000Y90000D02*
D03*
Y80000D02*
D03*
Y70000D02*
D03*
Y60000D02*
D03*
Y50000D02*
D03*
Y40000D02*
D03*
Y150000D02*
D03*
Y140000D02*
D03*
Y130000D02*
D03*
Y120000D02*
D03*
Y110000D02*
D03*
Y100000D02*
D03*
X390000Y89970D02*
D03*
Y80000D02*
D03*
Y70000D02*
D03*
Y60000D02*
D03*
Y50000D02*
D03*
Y150000D02*
D03*
Y140000D02*
D03*
Y130000D02*
D03*
Y120000D02*
D03*
Y110000D02*
D03*
Y100000D02*
D03*
X175000Y270000D02*
D03*
X165000D02*
D03*
X155000D02*
D03*
X145000D02*
D03*
X135000D02*
D03*
D30*
X370000Y217500D02*
D03*
X390000Y40000D02*
D03*
D31*
X245000Y270000D02*
D03*
X125000D02*
D03*
D32*
X187953Y100000D02*
D03*
X232047D02*
D03*
X72047D02*
D03*
X27953D02*
D03*
D33*
X219843Y127559D02*
D03*
X200157D02*
D03*
X210000Y70472D02*
D03*
X219843D02*
D03*
X200157D02*
D03*
X40157D02*
D03*
X59843D02*
D03*
X50000D02*
D03*
X40157Y127559D02*
D03*
X59843D02*
D03*
D34*
X135000Y135000D02*
D03*
X217500Y30000D02*
D03*
X182500D02*
D03*
X250000Y120000D02*
D03*
X95000Y40000D02*
D03*
X42500Y60000D02*
D03*
X327500Y245000D02*
D03*
X350000Y232100D02*
D03*
M02*
