G04*
G04 #@! TF.GenerationSoftware,Altium Limited,Altium Designer,19.1.8 (144)*
G04*
G04 Layer_Color=16711935*
%FSLAX25Y25*%
%MOIN*%
G70*
G01*
G75*
%ADD28C,0.08083*%
%ADD29C,0.06706*%
%ADD30R,0.06706X0.06706*%
%ADD31R,0.06706X0.06706*%
%ADD32C,0.19698*%
%ADD33C,0.07887*%
%ADD34C,0.05800*%
D28*
X60000Y282500D02*
D03*
X45000D02*
D03*
D29*
X370000Y247500D02*
D03*
Y237500D02*
D03*
Y227500D02*
D03*
X295000Y270000D02*
D03*
X285000D02*
D03*
X275000D02*
D03*
X265000D02*
D03*
X255000D02*
D03*
X380000Y90000D02*
D03*
Y80000D02*
D03*
Y70000D02*
D03*
Y60000D02*
D03*
Y50000D02*
D03*
Y40000D02*
D03*
Y150000D02*
D03*
Y140000D02*
D03*
Y130000D02*
D03*
Y120000D02*
D03*
Y110000D02*
D03*
Y100000D02*
D03*
X390000Y89970D02*
D03*
Y80000D02*
D03*
Y70000D02*
D03*
Y60000D02*
D03*
Y50000D02*
D03*
Y150000D02*
D03*
Y140000D02*
D03*
Y130000D02*
D03*
Y120000D02*
D03*
Y110000D02*
D03*
Y100000D02*
D03*
X175000Y270000D02*
D03*
X165000D02*
D03*
X155000D02*
D03*
X145000D02*
D03*
X135000D02*
D03*
D30*
X370000Y217500D02*
D03*
X390000Y40000D02*
D03*
D31*
X245000Y270000D02*
D03*
X125000D02*
D03*
D32*
X187953Y100000D02*
D03*
X232047D02*
D03*
X72047D02*
D03*
X27953D02*
D03*
D33*
X219843Y127559D02*
D03*
X200157D02*
D03*
X210000Y70472D02*
D03*
X219843D02*
D03*
X200157D02*
D03*
X40157D02*
D03*
X59843D02*
D03*
X50000D02*
D03*
X40157Y127559D02*
D03*
X59843D02*
D03*
D34*
X135000Y135000D02*
D03*
X217500Y30000D02*
D03*
X182500D02*
D03*
X250000Y120000D02*
D03*
X95000Y40000D02*
D03*
X42500Y60000D02*
D03*
X327500Y245000D02*
D03*
X350000Y232100D02*
D03*
M02*
