M48
;Layer_Color=9474304
;FILE_FORMAT=2:5
INCH,LZ
;TYPE=PLATED
T1F00S00C0.02800
T2F00S00C0.03543
T3F00S00C0.04724
T4F00S00C0.04921
T5F00S00C0.12913
%
T01
X0095Y004
X01825Y003
X02175
X025Y012
X0135Y0135
X00425Y006
X03275Y0245
X035Y02321
T02
X038Y004
Y005
X039
Y004
Y006
X038
Y007
Y008
Y009
Y01
Y011
Y012
Y013
Y014
Y015
X039
Y014
Y013
Y012
Y011
Y01
Y008997
Y008
Y007
X0175Y027
X0165
X0155
X0145
X0135
X0125
X0245
X0255
X0265
X0275
X0285
X0295
X037Y02475
Y02375
Y02275
Y02175
T03
X0219843Y0070472
Y0127559
X0200157
Y0070472
X021
X0059843
Y0127559
X0040157
Y0070472
X005
T04
X0045Y02825
X006
T05
X0232047Y01
X0187953
X0072047
X0027953
M30
