G04*
G04 #@! TF.GenerationSoftware,Altium Limited,Altium Designer,25.8.1 (18)*
G04*
G04 Layer_Physical_Order=2*
G04 Layer_Color=16711680*
%FSLAX25Y25*%
%MOIN*%
G70*
G04*
G04 #@! TF.SameCoordinates,78B3CC29-387C-40E1-891D-A8741DEB5A0A*
G04*
G04*
G04 #@! TF.FilePolarity,Positive*
G04*
G01*
G75*
%ADD12C,0.01000*%
%ADD17R,0.05906X0.05118*%
%ADD29C,0.00800*%
%ADD30C,0.07284*%
%ADD31O,0.11874X0.05937*%
%ADD32R,0.05906X0.05906*%
%ADD33C,0.05906*%
%ADD34R,0.05906X0.05906*%
%ADD35C,0.05906*%
%ADD36C,0.18898*%
%ADD37C,0.07087*%
%ADD38C,0.03937*%
%ADD39C,0.04000*%
%ADD40R,0.03543X0.03740*%
%ADD41R,0.03543X0.03740*%
%ADD42R,0.04134X0.02559*%
%ADD43R,0.03347X0.01181*%
%ADD44R,0.01181X0.03347*%
%ADD45R,0.14173X0.14173*%
%ADD46R,0.03150X0.08071*%
G04:AMPARAMS|DCode=47|XSize=21.65mil|YSize=49.21mil|CornerRadius=1.95mil|HoleSize=0mil|Usage=FLASHONLY|Rotation=270.000|XOffset=0mil|YOffset=0mil|HoleType=Round|Shape=RoundedRectangle|*
%AMROUNDEDRECTD47*
21,1,0.02165,0.04532,0,0,270.0*
21,1,0.01776,0.04921,0,0,270.0*
1,1,0.00390,-0.02266,-0.00888*
1,1,0.00390,-0.02266,0.00888*
1,1,0.00390,0.02266,0.00888*
1,1,0.00390,0.02266,-0.00888*
%
%ADD47ROUNDEDRECTD47*%
%ADD48R,0.05118X0.05906*%
%ADD49C,0.01200*%
D12*
X320000Y192000D02*
X332000Y180000D01*
X320000Y192000D02*
Y211260D01*
X332000Y180000D02*
X344000D01*
X341000Y91946D02*
Y92000D01*
X339000Y89946D02*
X341000Y91946D01*
X339000Y74740D02*
Y89946D01*
Y74740D02*
X340000Y73740D01*
X241866Y279000D02*
X244606Y276260D01*
X226669Y279000D02*
X241866D01*
X212420D02*
X226669D01*
X244606Y276260D02*
X250000D01*
X250586Y287500D02*
X257200D01*
X250000Y276260D02*
X255000D01*
X250000D02*
Y286914D01*
X250586Y287500D01*
X267000Y190000D02*
X275000D01*
X262000Y185000D02*
X267000Y190000D01*
X262000Y174000D02*
Y185000D01*
X133154Y12000D02*
X133740Y12586D01*
Y17500D01*
X61846Y12000D02*
X133154D01*
X61260Y12586D02*
X61846Y12000D01*
X61260Y12586D02*
Y17500D01*
Y52500D01*
X426480Y270000D02*
Y279000D01*
X419000Y270000D02*
Y279000D01*
X390000Y280000D02*
X418000D01*
X419000Y279000D01*
X426480D02*
X427480Y280000D01*
X229700Y407500D02*
Y411250D01*
X396795Y376000D02*
X419000D01*
X395000Y375000D02*
X395795D01*
X396795Y376000D01*
X382620Y375020D02*
X394980D01*
X395000Y375000D01*
X419000Y376000D02*
X420740Y377740D01*
X343900Y336300D02*
X382620Y375020D01*
X297300Y336300D02*
X343900D01*
X414931Y398932D02*
X421271D01*
X413867Y397867D02*
X414931Y398932D01*
X413867Y394367D02*
Y397867D01*
X413500Y394000D02*
X413867Y394367D01*
X421271Y398932D02*
X421340Y399000D01*
X427000D02*
X438000Y410000D01*
X421340Y399000D02*
X427000D01*
X442000Y400000D02*
X450000D01*
X436000Y394000D02*
X442000Y400000D01*
X420980Y394000D02*
X436000D01*
X420740Y377740D02*
Y384000D01*
X420980Y384240D02*
Y394000D01*
X420740Y384000D02*
X420980Y384240D01*
X412500Y384760D02*
X413260Y384000D01*
X413500Y384760D02*
Y394000D01*
X412260Y395240D02*
X413500Y394000D01*
X412260Y395240D02*
Y408500D01*
X438000Y410000D02*
X450000D01*
X419740Y402260D02*
Y408500D01*
Y402260D02*
X420000Y402000D01*
X419740Y408500D02*
X420000Y408760D01*
Y418000D01*
X412260Y408500D02*
X412520Y408760D01*
Y418000D01*
X392000D02*
X412520D01*
X420000Y393020D02*
X420980Y394000D01*
X164740Y383740D02*
X170000D01*
X163000Y372750D02*
Y382000D01*
X164740Y383740D01*
X86250Y365000D02*
X186250D01*
X85000Y363750D02*
Y376260D01*
Y363750D02*
X86250Y365000D01*
X56000Y308000D02*
X69260D01*
X54000Y306000D02*
X56000Y308000D01*
X47158Y303158D02*
X50000Y306000D01*
X54000D01*
X47158Y301273D02*
Y303158D01*
X46260Y300374D02*
X47158Y301273D01*
X419000Y407760D02*
X419740Y408500D01*
X163000Y372750D02*
X166250Y369500D01*
X100740Y383000D02*
X122300D01*
X100000Y383740D02*
X100740Y383000D01*
X122300D02*
X135800Y369500D01*
X366250Y194500D02*
X455500D01*
X186250Y365000D02*
X192050D01*
X242490D01*
X226260Y292500D02*
Y305000D01*
Y285000D02*
Y292500D01*
X258009Y308120D02*
X258100Y308210D01*
X258000Y308110D02*
X258009Y308120D01*
X166250Y369500D02*
X170400D01*
X135800D02*
X166250D01*
X81161Y116240D02*
X187500D01*
X276984Y315984D02*
X297300Y336300D01*
X274646Y315984D02*
X276984D01*
X226260Y308953D02*
Y315000D01*
X85000Y328740D02*
Y363750D01*
X242490Y365000D02*
X243740Y366250D01*
Y370000D01*
X190800Y363750D02*
X192050Y365000D01*
X190800Y316250D02*
Y363750D01*
Y316250D02*
X192050Y315000D01*
X226260D01*
X185000Y366250D02*
Y376260D01*
Y366250D02*
X186250Y365000D01*
X243740Y370000D02*
Y380000D01*
Y391250D01*
X244990Y392500D01*
X250335D01*
X61260Y52500D02*
X65000Y56240D01*
Y91260D01*
X186260Y17500D02*
Y52500D01*
X187500Y53740D01*
Y88760D01*
X186260Y13750D02*
Y17500D01*
Y13750D02*
X188424Y11586D01*
X254076D01*
X256240Y13750D01*
Y17500D01*
X309900D01*
X331250Y38850D01*
Y73154D01*
X331836Y73740D01*
X340000D01*
X365000Y179980D02*
Y193250D01*
X366250Y194500D01*
X354400Y180000D02*
X354420Y179980D01*
X365000D01*
X298760Y211260D02*
X320000D01*
X297500Y210000D02*
X298760Y211260D01*
X275000Y210000D02*
X297500D01*
X455500Y194500D02*
X482500Y221500D01*
Y231260D01*
X491260D01*
X500000Y240000D01*
X478600Y231260D02*
X482500D01*
X475520Y234340D02*
X478600Y231260D01*
X475520Y234340D02*
Y251934D01*
X476105Y252520D01*
X482500D01*
X226260Y292500D02*
X227560Y291200D01*
X256400D01*
X228480Y282780D02*
X235331D01*
X226260Y285000D02*
X228480Y282780D01*
X233740Y305000D02*
Y308000D01*
X255354Y308110D01*
X258000D01*
X255354Y312047D02*
X258000D01*
X258009Y308120D02*
X258110Y305354D01*
X258000Y312047D02*
X258100Y311947D01*
X230200Y305000D02*
X233740D01*
X230000Y305200D02*
X230200Y305000D01*
X230000Y305200D02*
Y318327D01*
X228327Y320000D02*
X230000Y318327D01*
X228281Y320000D02*
X228327D01*
X226260Y322022D02*
X228281Y320000D01*
X226260Y322022D02*
Y325000D01*
X192500Y380000D02*
X196240Y376260D01*
X200000D01*
X170400Y369500D02*
X180900Y380000D01*
X192500D01*
X152300Y396260D02*
X170000D01*
X143875Y404685D02*
X152300Y396260D01*
X135000Y404685D02*
X143875D01*
X200000Y376260D02*
X204360D01*
X208100Y380000D01*
X236260D01*
Y370000D02*
Y380000D01*
X170000Y396260D02*
Y399900D01*
X170100Y400000D01*
X188800D01*
X190450Y401650D01*
Y410000D01*
X191800Y411350D01*
X229600D01*
X229700Y411250D01*
X229665Y407500D02*
X229700D01*
X236260Y380000D02*
Y392500D01*
X238560Y394800D01*
X280000Y337000D02*
Y376260D01*
X269921Y326921D02*
X280000Y337000D01*
X269921Y324646D02*
Y326921D01*
X280000Y376260D02*
X294660D01*
X323400Y405000D01*
X324685D02*
X339685Y420000D01*
X390000D01*
X269921Y319921D02*
Y324646D01*
X265000Y315000D02*
X269921Y319921D01*
X255354D02*
X260079D01*
X265000Y315000D01*
X260079Y310079D02*
X265000Y315000D01*
X260079Y305354D02*
Y310079D01*
X427480Y280000D02*
X450000D01*
X252586Y319921D02*
X255354D01*
X252408Y343558D02*
X252586Y319921D01*
X252408Y343558D02*
X254250Y345400D01*
X267090D01*
X268740Y343750D01*
Y340000D02*
Y343750D01*
X108760Y17500D02*
Y21713D01*
X100000Y30472D02*
X108760Y21713D01*
X65000Y116240D02*
X81161D01*
X109843Y87559D01*
X187500Y116240D02*
X206161D01*
X234843Y87559D01*
X225000Y30472D02*
X231260Y24213D01*
Y17500D02*
Y24213D01*
X276000Y160000D02*
X344000D01*
X262000Y174000D02*
X276000Y160000D01*
X258110Y302490D02*
Y305354D01*
Y302490D02*
X259600Y301000D01*
Y289900D02*
Y301000D01*
X257200Y287500D02*
X259600Y289900D01*
X271114Y276260D02*
X272103Y275271D01*
X265000Y276260D02*
X271114D01*
X255000D02*
X265000D01*
X182680Y308740D02*
X212420Y279000D01*
X70000Y308740D02*
X182680D01*
X377500Y181240D02*
X388040D01*
D17*
X482500Y231260D02*
D03*
Y238740D02*
D03*
Y252520D02*
D03*
Y260000D02*
D03*
X320000Y211260D02*
D03*
Y218740D02*
D03*
X187500Y108760D02*
D03*
Y116240D02*
D03*
X65000Y108760D02*
D03*
Y116240D02*
D03*
Y98740D02*
D03*
Y91260D02*
D03*
X70000Y301260D02*
D03*
Y308740D02*
D03*
X85000Y321260D02*
D03*
Y328740D02*
D03*
Y403740D02*
D03*
Y396260D02*
D03*
X100000Y403740D02*
D03*
Y396260D02*
D03*
X255000Y276260D02*
D03*
Y283740D02*
D03*
X265000D02*
D03*
Y276260D02*
D03*
X320000Y340000D02*
D03*
Y332520D02*
D03*
X310000Y340000D02*
D03*
Y332520D02*
D03*
X170000Y403740D02*
D03*
Y396260D02*
D03*
X185000Y403740D02*
D03*
Y396260D02*
D03*
X187500Y96240D02*
D03*
Y88760D02*
D03*
X340000Y66260D02*
D03*
Y73740D02*
D03*
X325000Y66260D02*
D03*
Y73740D02*
D03*
X310000Y66260D02*
D03*
Y73740D02*
D03*
X295000Y66260D02*
D03*
Y73740D02*
D03*
X377500Y181240D02*
D03*
Y173760D02*
D03*
X365000Y179980D02*
D03*
Y172500D02*
D03*
X245000Y283740D02*
D03*
Y276260D02*
D03*
X185000Y376260D02*
D03*
X85000D02*
D03*
X265000Y361260D02*
D03*
X330000Y340000D02*
D03*
X100000Y383740D02*
D03*
X280000Y376260D02*
D03*
X200000D02*
D03*
X170000Y383740D02*
D03*
X215000Y361260D02*
D03*
X170000Y376260D02*
D03*
X200000Y396260D02*
D03*
Y403740D02*
D03*
X215000D02*
D03*
Y396260D02*
D03*
X200000Y383740D02*
D03*
X215000D02*
D03*
Y376260D02*
D03*
X265000Y403740D02*
D03*
Y396260D02*
D03*
X280000D02*
D03*
Y403740D02*
D03*
X265000Y383740D02*
D03*
Y376260D02*
D03*
X280000Y383740D02*
D03*
X215000Y368740D02*
D03*
X265000D02*
D03*
X100000Y376260D02*
D03*
X85000Y383740D02*
D03*
X185000D02*
D03*
X340000Y332520D02*
D03*
Y340000D02*
D03*
X330000Y332520D02*
D03*
D29*
X46000Y363224D02*
Y410000D01*
X295000Y60000D02*
Y66260D01*
X62500Y145500D02*
X380200D01*
X57109Y140109D02*
X62500Y145500D01*
X334300Y77300D02*
X336000Y79000D01*
Y94000D02*
X419400Y177400D01*
X336000Y79000D02*
Y94000D01*
X325600Y80000D02*
X330400Y84800D01*
Y86400D02*
X331000Y87000D01*
X330400Y84800D02*
Y86400D01*
X57109Y109228D02*
Y140109D01*
X295000Y73740D02*
X301740D01*
X302000Y74000D01*
X305000Y219000D02*
X305260Y218740D01*
X331300D01*
X330531Y215000D02*
X331000Y214531D01*
X280000Y215000D02*
X330531D01*
X331000Y203000D02*
X344000Y190000D01*
X331000Y203000D02*
Y214531D01*
X275000Y250000D02*
X305000D01*
X332559Y388441D02*
X340000Y381000D01*
X332559Y388441D02*
Y395551D01*
X340000Y340000D02*
Y381000D01*
X157300Y224100D02*
X362900D01*
X363000Y224000D01*
X157200D02*
X157300Y224100D01*
X275518Y174482D02*
X347518D01*
X275000Y175000D02*
X275518Y174482D01*
X349500Y172500D02*
X365000D01*
X347743Y174257D02*
X349500Y172500D01*
X347518Y174482D02*
X347743Y174257D01*
X275000Y175000D02*
Y180000D01*
X268000Y174000D02*
Y182968D01*
X270632Y185600D02*
X277500D01*
X268000Y182968D02*
X270632Y185600D01*
X272000Y170000D02*
X344000D01*
X268000Y174000D02*
X272000Y170000D01*
X57578Y108760D02*
X65000D01*
X57109Y109228D02*
X57578Y108760D01*
X435000Y312000D02*
X442000D01*
X450000Y320000D01*
X390000Y420000D02*
X392000Y418000D01*
X260369Y331631D02*
Y332131D01*
Y331631D02*
X262047Y329953D01*
Y324646D02*
Y329953D01*
X256000Y331110D02*
X260079Y327031D01*
X256000Y337750D02*
X258250Y340000D01*
X256000Y331110D02*
Y337750D01*
X78000Y410800D02*
X84200Y417000D01*
X78000Y396728D02*
Y410800D01*
X78469Y396260D02*
X85000D01*
X78000Y396728D02*
X78469Y396260D01*
X69260Y308000D02*
X70000Y308740D01*
X319521Y39479D02*
X320000Y39000D01*
X319521Y39479D02*
Y72011D01*
X446000Y360000D02*
X450000D01*
X370865Y335500D02*
X421500D01*
X446000Y360000D01*
X445000Y380000D02*
X450000D01*
X373600Y355000D02*
X420000D01*
X445000Y380000D01*
X226260Y305000D02*
Y308953D01*
X133740Y17500D02*
X186260D01*
X344000Y180000D02*
X354400D01*
X258100Y308210D02*
Y311947D01*
X226260Y325000D02*
X226520Y329560D01*
Y334000D01*
X170000Y383740D02*
Y396260D01*
X100000Y383740D02*
Y396260D01*
X238560Y394800D02*
X256250D01*
X260000Y391050D01*
Y381150D02*
Y391050D01*
Y381150D02*
X261250Y379900D01*
X280000Y379800D01*
Y376260D02*
Y379800D01*
X323400Y405000D02*
X324685D01*
X87480Y17500D02*
X108760D01*
X213740D02*
X231260D01*
X193740D02*
X206260D01*
Y21575D01*
X215157Y30472D01*
X234843D02*
X238740Y26575D01*
Y17500D02*
Y26575D01*
Y17500D02*
X248760D01*
X187500Y96240D02*
Y108760D01*
Y96240D02*
X206476D01*
X215157Y87559D01*
X222716Y80000D01*
X325600D01*
X68740Y17500D02*
X80000D01*
Y29222D01*
X81250Y30472D01*
X90157D01*
X102300Y179500D02*
X151800Y229000D01*
X221000D01*
X224000Y226000D01*
X322516D01*
X330516Y234000D01*
X399000D01*
X116240Y17500D02*
X126260D01*
X116240D02*
Y24075D01*
X109843Y30472D02*
X116240Y24075D01*
X65000Y98740D02*
Y108760D01*
Y98740D02*
X78976D01*
X90157Y87559D01*
X235331Y272669D02*
Y275220D01*
Y272669D02*
X275000Y272000D01*
X277000Y274000D01*
Y282531D01*
X275791Y283740D02*
X277000Y282531D01*
X265000Y283740D02*
X275791D01*
X255000D02*
X265000D01*
Y293000D01*
X262047Y295953D02*
X265000Y293000D01*
X262047Y295953D02*
Y305354D01*
X233740Y315000D02*
Y325000D01*
X234000Y329560D01*
Y334000D01*
X233740Y315000D02*
X234724Y315984D01*
X255354D01*
X260079Y324646D02*
Y327031D01*
X258250Y340000D02*
X261260D01*
X215000Y368740D02*
Y376260D01*
Y361260D02*
X244560D01*
X248300Y365000D01*
X270600D01*
X274900Y360700D01*
Y334347D02*
Y360700D01*
X267953Y327400D02*
X274900Y334347D01*
X267953Y324646D02*
Y327400D01*
X85000Y403740D02*
X100000D01*
X109742D01*
X139900Y373583D01*
X142874D01*
X85000Y383740D02*
Y396260D01*
Y383740D02*
X88700D01*
X96180Y376260D01*
X100000D01*
X84200Y417000D02*
X252500D01*
X253900Y415600D01*
Y406100D02*
Y415600D01*
X252400Y404600D02*
X253900Y406100D01*
X243000Y404600D02*
X252400D01*
X240900Y402500D02*
X243000Y404600D01*
X229665Y402500D02*
X240900D01*
X200000Y383740D02*
Y396260D01*
X302600Y340000D02*
X310000D01*
X264016Y333016D02*
X265000Y334000D01*
X264016Y324646D02*
Y333016D01*
X310000Y332520D02*
X320000D01*
X278000Y330400D02*
X297600Y350000D01*
X327000D01*
X330000Y347000D01*
Y340000D02*
Y347000D01*
Y332520D02*
X340000D01*
X265000Y368740D02*
Y376260D01*
X265984Y324646D02*
Y329984D01*
X272400Y336400D01*
Y359160D01*
X270300Y361260D02*
X272400Y359160D01*
X265000Y361260D02*
X270300D01*
X135264Y395236D02*
X142874D01*
X128000Y402500D02*
X135264Y395236D01*
X128000Y402500D02*
Y407500D01*
X129200Y408700D01*
X144900D01*
X149860Y403740D01*
X170000D01*
X185000D01*
X170000Y376260D02*
X173700D01*
X181180Y383740D01*
X185000D01*
Y396260D01*
X191250D01*
X192500Y397510D01*
Y406050D01*
X193850Y407400D01*
X218900D01*
X221300Y405000D01*
X240700D01*
X243200Y407500D01*
X250335D01*
X280000Y383740D02*
Y396260D01*
X340000Y59800D02*
Y66260D01*
X310000Y59440D02*
Y66260D01*
X325000Y59700D02*
Y66260D01*
X40000Y357224D02*
X46000Y363224D01*
X60000Y357224D02*
Y383400D01*
X61000Y384400D01*
Y411500D01*
X267953Y297147D02*
Y305354D01*
Y297147D02*
X284100Y281000D01*
X299800D01*
X300000Y281200D01*
Y288900D01*
X300100Y289000D01*
X315150D01*
X320000Y293850D01*
Y303950D01*
X320150Y304100D01*
X328825D01*
X336725Y312000D01*
X366371D01*
X380271Y325900D01*
X423500D01*
X437600Y340000D01*
X450000D01*
X482500Y260000D02*
X500000D01*
X264016Y297984D02*
Y305354D01*
Y297984D02*
X283800Y278200D01*
X322671D01*
X353271Y308800D01*
X373716D01*
X383000Y318084D01*
Y322000D01*
X385000Y324000D01*
X427600D01*
X438600Y335000D01*
X452750D01*
X454100Y336350D01*
Y345900D01*
X450000Y350000D02*
X454100Y345900D01*
X488740Y238740D02*
X500000Y250000D01*
X482500Y238740D02*
X488740D01*
X277500Y185600D02*
X279000Y187100D01*
Y196000D01*
X275000Y200000D02*
X279000Y196000D01*
X275000Y220000D02*
X280000Y215000D01*
X280500Y245000D02*
X329000D01*
X344000Y260000D01*
X369800Y285800D01*
X392300D01*
X395000Y288500D01*
Y295000D01*
X390000Y300000D02*
X395000Y295000D01*
X344000Y240000D02*
X388200Y284200D01*
X399860D01*
X405660Y290000D01*
X450000D01*
X275000Y240000D02*
X344000D01*
X331300Y218740D02*
X332560Y220000D01*
X344000D01*
X341500Y267500D02*
X344000Y270000D01*
X282500Y267500D02*
X341500D01*
X275000Y260000D02*
X282500Y267500D01*
X344000Y270000D02*
X364000Y290000D01*
X390000D01*
X344000Y280000D02*
X369800Y305800D01*
X419908D01*
X444108Y330000D01*
X450000D01*
X53740Y300374D02*
X61400D01*
X62286Y301260D01*
X70000D01*
X139940D01*
X171200Y270000D01*
X323000D01*
X360300Y307300D01*
X377300D01*
X390000Y320000D01*
X50000Y309626D02*
Y322776D01*
X358800Y290400D02*
X372400Y304000D01*
X446000D01*
X450000Y300000D01*
X310000Y73740D02*
X314740D01*
X318300Y77300D01*
X334300D01*
X321250Y73740D02*
X325000D01*
X319521Y72011D02*
X321250Y73740D01*
X274646Y314016D02*
X284900D01*
X285884Y315000D01*
X296260D01*
X450000Y390000D02*
X455000Y385000D01*
Y378000D02*
Y385000D01*
X452400Y375400D02*
X455000Y378000D01*
X447400Y375400D02*
X452400D01*
X416000Y344000D02*
X447400Y375400D01*
X368800Y344000D02*
X416000D01*
X346300Y321500D02*
X368800Y344000D01*
X306300Y321500D02*
X346300D01*
X303740Y318940D02*
X306300Y321500D01*
X303740Y315000D02*
Y318940D01*
X274646Y308110D02*
X283400D01*
X291510Y300000D01*
X296260D01*
X303740D02*
X309053D01*
X320100Y311047D01*
X327147D01*
X329599Y313500D01*
X365100D01*
X385600Y334000D01*
X426000D01*
X447500Y355500D01*
X452500D01*
X454000Y357000D01*
Y366000D01*
X450000Y370000D02*
X454000Y366000D01*
X274646Y310079D02*
X315089D01*
X316260Y311250D01*
Y315000D01*
X350365D02*
X370865Y335500D01*
X323740Y315000D02*
X350365D01*
X269921Y300079D02*
Y305354D01*
Y300079D02*
X285000Y285000D01*
X296260D01*
X303740D02*
X317500D01*
X342700Y310200D01*
X370400D01*
X378600Y318400D01*
X60000Y322776D02*
X71700D01*
X73216Y321260D01*
X85000D01*
X215000Y383740D02*
Y396260D01*
X220400D01*
X224160Y392500D01*
X229665D01*
X200000Y403740D02*
X215000D01*
X217600D01*
X223840Y397500D01*
X229665D01*
X250335D02*
X257000D01*
X258240Y396260D01*
X265000D01*
Y383740D02*
Y396260D01*
X250335Y402500D02*
X257000D01*
X258240Y403740D01*
X265000D01*
X280000D01*
X271890Y301110D02*
Y305354D01*
Y301110D02*
X278100Y294900D01*
X315000D01*
X316260Y296160D01*
Y300000D01*
X365000Y151250D02*
Y172500D01*
X363750Y150000D02*
X365000Y151250D01*
X344000Y150000D02*
X363750D01*
X365000Y172500D02*
X370600D01*
X371860Y173760D01*
X377500D01*
X320000Y340000D02*
Y343550D01*
X321250Y344800D01*
X323800D01*
D30*
X61000Y410000D02*
D03*
X46000D02*
D03*
D31*
X332559Y373898D02*
D03*
Y395551D02*
D03*
X324685Y405000D02*
D03*
X135000Y404685D02*
D03*
X142874Y373583D02*
D03*
Y395236D02*
D03*
D32*
X500000Y260000D02*
D03*
X344000Y150000D02*
D03*
X275000Y180000D02*
D03*
X25000Y200000D02*
D03*
D33*
X500000Y250000D02*
D03*
Y240000D02*
D03*
Y230000D02*
D03*
X344000Y160000D02*
D03*
Y170000D02*
D03*
Y180000D02*
D03*
Y190000D02*
D03*
Y200000D02*
D03*
Y210000D02*
D03*
Y220000D02*
D03*
Y230000D02*
D03*
Y240000D02*
D03*
Y250000D02*
D03*
Y260000D02*
D03*
Y270000D02*
D03*
Y280000D02*
D03*
X275000Y190000D02*
D03*
Y260000D02*
D03*
Y250000D02*
D03*
Y240000D02*
D03*
Y230000D02*
D03*
Y220000D02*
D03*
Y210000D02*
D03*
Y200000D02*
D03*
X25000Y210000D02*
D03*
Y220000D02*
D03*
Y230000D02*
D03*
Y240000D02*
D03*
D34*
X390000Y420000D02*
D03*
D35*
Y410000D02*
D03*
Y400000D02*
D03*
Y390000D02*
D03*
Y380000D02*
D03*
Y370000D02*
D03*
Y360000D02*
D03*
Y350000D02*
D03*
Y340000D02*
D03*
Y330000D02*
D03*
Y320000D02*
D03*
Y310000D02*
D03*
Y300000D02*
D03*
Y290000D02*
D03*
Y280000D02*
D03*
Y270000D02*
D03*
Y260000D02*
D03*
Y250000D02*
D03*
Y240000D02*
D03*
Y230000D02*
D03*
Y220000D02*
D03*
Y210000D02*
D03*
Y200000D02*
D03*
Y190000D02*
D03*
X450000Y420000D02*
D03*
Y410000D02*
D03*
Y400000D02*
D03*
Y390000D02*
D03*
Y380000D02*
D03*
Y370000D02*
D03*
Y360000D02*
D03*
Y350000D02*
D03*
Y340000D02*
D03*
Y330000D02*
D03*
Y320000D02*
D03*
Y310000D02*
D03*
Y300000D02*
D03*
Y290000D02*
D03*
Y280000D02*
D03*
Y270000D02*
D03*
Y260000D02*
D03*
Y250000D02*
D03*
Y240000D02*
D03*
Y230000D02*
D03*
Y220000D02*
D03*
Y210000D02*
D03*
Y200000D02*
D03*
Y190000D02*
D03*
D36*
X77953Y60000D02*
D03*
X122047D02*
D03*
X202953D02*
D03*
X247047D02*
D03*
D37*
X109843Y87559D02*
D03*
X90157D02*
D03*
X100000Y30472D02*
D03*
X109843D02*
D03*
X90157D02*
D03*
X234843Y87559D02*
D03*
X215157D02*
D03*
X225000Y30472D02*
D03*
X234843D02*
D03*
X215157D02*
D03*
D38*
X295000Y60000D02*
D03*
X331000Y87000D02*
D03*
X305000Y219000D02*
D03*
X341000Y92000D02*
D03*
X363000Y224000D02*
D03*
X395000Y375000D02*
D03*
X420000Y402000D02*
D03*
X320000Y39000D02*
D03*
X256400Y291200D02*
D03*
X272103Y275271D02*
D03*
X102300Y179500D02*
D03*
X399000Y234000D02*
D03*
X157200Y224000D02*
D03*
X380200Y145500D02*
D03*
X302600Y340000D02*
D03*
X265000Y334000D02*
D03*
X278000Y330400D02*
D03*
X340000Y59800D02*
D03*
X310000Y59440D02*
D03*
X325000Y59700D02*
D03*
X280500Y245000D02*
D03*
X373600Y355000D02*
D03*
X358800Y290400D02*
D03*
X419400Y177400D02*
D03*
X378600Y318400D02*
D03*
X388040Y181240D02*
D03*
X323800Y344800D02*
D03*
D39*
X302000Y74000D02*
D03*
X305000Y250000D02*
D03*
X283000Y322000D02*
D03*
X435000Y312000D02*
D03*
X260000Y332000D02*
D03*
D40*
X50000Y309626D02*
D03*
X53740Y300374D02*
D03*
D41*
X46260D02*
D03*
D42*
X226669Y279000D02*
D03*
X235331Y275220D02*
D03*
Y282780D02*
D03*
D43*
X255354Y308110D02*
D03*
Y310079D02*
D03*
Y312047D02*
D03*
Y314016D02*
D03*
Y315984D02*
D03*
Y317953D02*
D03*
Y319921D02*
D03*
Y321890D02*
D03*
X274646D02*
D03*
Y319921D02*
D03*
Y317953D02*
D03*
Y315984D02*
D03*
Y314016D02*
D03*
Y312047D02*
D03*
Y310079D02*
D03*
Y308110D02*
D03*
D44*
X258110Y324646D02*
D03*
X260079D02*
D03*
X262047D02*
D03*
X264016D02*
D03*
X265984D02*
D03*
X267953D02*
D03*
X269921D02*
D03*
X271890D02*
D03*
Y305354D02*
D03*
X269921D02*
D03*
X267953D02*
D03*
X265984D02*
D03*
X264016D02*
D03*
X262047D02*
D03*
X260079D02*
D03*
X258110D02*
D03*
D45*
X265000Y315000D02*
D03*
D46*
X60000Y322776D02*
D03*
X50000D02*
D03*
X40000D02*
D03*
Y357224D02*
D03*
X50000D02*
D03*
X60000D02*
D03*
D47*
X229665Y392500D02*
D03*
Y397500D02*
D03*
Y402500D02*
D03*
Y407500D02*
D03*
X250335Y392500D02*
D03*
Y397500D02*
D03*
Y402500D02*
D03*
Y407500D02*
D03*
D48*
X426480Y270000D02*
D03*
X419000D02*
D03*
Y279000D02*
D03*
X426480D02*
D03*
X412520Y418000D02*
D03*
X420000D02*
D03*
X419740Y408500D02*
D03*
X412260D02*
D03*
X133740Y17500D02*
D03*
X126260D02*
D03*
X256240D02*
D03*
X248760D02*
D03*
X186260D02*
D03*
X193740D02*
D03*
X116240D02*
D03*
X108760D02*
D03*
X413500Y394000D02*
D03*
X420980D02*
D03*
X420740Y384000D02*
D03*
X413260D02*
D03*
X206260Y17500D02*
D03*
X213740D02*
D03*
X238740D02*
D03*
X231260D02*
D03*
X80000D02*
D03*
X87480D02*
D03*
X61260D02*
D03*
X68740D02*
D03*
X303740Y315000D02*
D03*
X323740D02*
D03*
X303740Y285000D02*
D03*
X226520Y334000D02*
D03*
X234000D02*
D03*
X316260Y300000D02*
D03*
X323740D02*
D03*
X296260Y285000D02*
D03*
X316260Y315000D02*
D03*
X296260Y300000D02*
D03*
X303740D02*
D03*
X226260Y315000D02*
D03*
X233740D02*
D03*
X261260Y340000D02*
D03*
X268740D02*
D03*
X226260Y325000D02*
D03*
X233740D02*
D03*
Y305000D02*
D03*
X226260D02*
D03*
X296260Y315000D02*
D03*
X243740Y370000D02*
D03*
Y380000D02*
D03*
X236260Y370000D02*
D03*
Y380000D02*
D03*
D49*
X244039Y282780D02*
X245000Y283740D01*
X235331Y282780D02*
X244039D01*
M02*
