G04*
G04 #@! TF.GenerationSoftware,Altium Limited,Altium Designer,25.8.1 (18)*
G04*
G04 Layer_Color=255*
%FSLAX25Y25*%
%MOIN*%
G70*
G04*
G04 #@! TF.SameCoordinates,78B3CC29-387C-40E1-891D-A8741DEB5A0A*
G04*
G04*
G04 #@! TF.FilePolarity,Positive*
G04*
G01*
G75*
%ADD17R,0.05906X0.05118*%
%ADD30C,0.07284*%
%ADD31O,0.11874X0.05937*%
%ADD32R,0.05906X0.05906*%
%ADD33C,0.05906*%
%ADD34R,0.05906X0.05906*%
%ADD35C,0.05906*%
%ADD36C,0.18898*%
%ADD37C,0.07087*%
D17*
X325000Y53740D02*
D03*
Y46260D02*
D03*
X310000Y53740D02*
D03*
Y46260D02*
D03*
X340000Y53740D02*
D03*
Y46260D02*
D03*
X295000Y53740D02*
D03*
Y46260D02*
D03*
D30*
X61000Y410000D02*
D03*
X46000D02*
D03*
D31*
X332559Y373898D02*
D03*
Y395551D02*
D03*
X324685Y405000D02*
D03*
X135000Y404685D02*
D03*
X142874Y373583D02*
D03*
Y395236D02*
D03*
D32*
X500000Y260000D02*
D03*
X344000Y150000D02*
D03*
X275000Y180000D02*
D03*
X25000Y200000D02*
D03*
D33*
X500000Y250000D02*
D03*
Y240000D02*
D03*
Y230000D02*
D03*
X344000Y160000D02*
D03*
Y170000D02*
D03*
Y180000D02*
D03*
Y190000D02*
D03*
Y200000D02*
D03*
Y210000D02*
D03*
Y220000D02*
D03*
Y230000D02*
D03*
Y240000D02*
D03*
Y250000D02*
D03*
Y260000D02*
D03*
Y270000D02*
D03*
Y280000D02*
D03*
X275000Y190000D02*
D03*
Y260000D02*
D03*
Y250000D02*
D03*
Y240000D02*
D03*
Y230000D02*
D03*
Y220000D02*
D03*
Y210000D02*
D03*
Y200000D02*
D03*
X25000Y210000D02*
D03*
Y220000D02*
D03*
Y230000D02*
D03*
Y240000D02*
D03*
D34*
X390000Y420000D02*
D03*
D35*
Y410000D02*
D03*
Y400000D02*
D03*
Y390000D02*
D03*
Y380000D02*
D03*
Y370000D02*
D03*
Y360000D02*
D03*
Y350000D02*
D03*
Y340000D02*
D03*
Y330000D02*
D03*
Y320000D02*
D03*
Y310000D02*
D03*
Y300000D02*
D03*
Y290000D02*
D03*
Y280000D02*
D03*
Y270000D02*
D03*
Y260000D02*
D03*
Y250000D02*
D03*
Y240000D02*
D03*
Y230000D02*
D03*
Y220000D02*
D03*
Y210000D02*
D03*
Y200000D02*
D03*
Y190000D02*
D03*
X450000Y420000D02*
D03*
Y410000D02*
D03*
Y400000D02*
D03*
Y390000D02*
D03*
Y380000D02*
D03*
Y370000D02*
D03*
Y360000D02*
D03*
Y350000D02*
D03*
Y340000D02*
D03*
Y330000D02*
D03*
Y320000D02*
D03*
Y310000D02*
D03*
Y300000D02*
D03*
Y290000D02*
D03*
Y280000D02*
D03*
Y270000D02*
D03*
Y260000D02*
D03*
Y250000D02*
D03*
Y240000D02*
D03*
Y230000D02*
D03*
Y220000D02*
D03*
Y210000D02*
D03*
Y200000D02*
D03*
Y190000D02*
D03*
D36*
X77953Y60000D02*
D03*
X122047D02*
D03*
X202953D02*
D03*
X247047D02*
D03*
D37*
X109843Y87559D02*
D03*
X90157D02*
D03*
X100000Y30472D02*
D03*
X109843D02*
D03*
X90157D02*
D03*
X234843Y87559D02*
D03*
X215157D02*
D03*
X225000Y30472D02*
D03*
X234843D02*
D03*
X215157D02*
D03*
M02*
