M48
;Layer_Color=9474304
;FILE_FORMAT=2:5
INCH
;TYPE=PLATED
T01F00S00C0.01200
T02F00S00C0.01968
T03F00S00C0.03543
T05F00S00C0.04724
T06F00S00C0.04921
T07F00S00C0.12913
%
T01
X0642000Y0464000
X0623000Y0712000
X0600000Y0722000
X0645000Y0640000
X0775000Y0702000
T02
X0635000Y0450000
X0650000Y0449440
X0665000Y0449700
X0680000Y0449800
X0660000Y0429000
X0671000Y0477000
X0681000Y0482000
X0720200Y0535500
X0728040Y0571240
X0759400Y0567400
X0739000Y0624000
X0703000Y0614000
X0645000Y0609000
X0497200Y0614000
X0442300Y0569500
X0620500Y0635000
X0612103Y0665271
X0596400Y0681200
X0605000Y0724000
X0618000Y0720400
X0642600Y0730000
X0663800Y0734800
X0713600Y0745000
X0735000Y0765000
X0718600Y0708400
X0698800Y0680400
X0760000Y0792000
T03
X0790000Y0580000
Y0590000
Y0600000
Y0610000
Y0620000
X0840000
X0730000
Y0610000
Y0600000
Y0590000
Y0580000
X0684000
Y0570000
Y0560000
Y0550000
Y0540000
Y0590000
Y0600000
Y0610000
Y0620000
X0615000
Y0610000
Y0600000
Y0590000
Y0580000
Y0570000
X0365000Y0590000
Y0600000
Y0610000
Y0620000
Y0630000
X0615000
Y0640000
Y0650000
X0684000
Y0640000
Y0630000
Y0660000
Y0670000
X0730000
Y0680000
Y0690000
Y0700000
Y0710000
Y0720000
Y0730000
Y0740000
Y0750000
Y0760000
Y0770000
Y0780000
Y0660000
Y0650000
Y0640000
Y0630000
X0790000
Y0640000
Y0650000
Y0660000
Y0670000
Y0680000
Y0690000
Y0700000
Y0710000
Y0720000
Y0730000
Y0740000
Y0750000
Y0760000
Y0770000
Y0780000
X0840000Y0650000
Y0640000
Y0630000
X0790000Y0790000
Y0800000
Y0810000
X0730000
Y0800000
Y0790000
T05
X0430157Y0420472
X0440000
X0449843
X0555157
X0565000
X0574843
Y0477559
X0555157
X0449843
X0430157
T06
X0386000Y0800000
X0401000
T07
X0417953Y0450000
X0462047
X0542953
X0587047
M30
