G04*
G04 #@! TF.GenerationSoftware,Altium Limited,Altium Designer,25.8.1 (18)*
G04*
G04 Layer_Color=16711935*
%FSLAX25Y25*%
%MOIN*%
G70*
G04*
G04 #@! TF.SameCoordinates,78B3CC29-387C-40E1-891D-A8741DEB5A0A*
G04*
G04*
G04 #@! TF.FilePolarity,Negative*
G04*
G01*
G75*
%ADD18R,0.06706X0.05918*%
%ADD19C,0.08083*%
%ADD20O,0.12674X0.06737*%
%ADD21R,0.06706X0.06706*%
%ADD22C,0.06706*%
%ADD23R,0.06706X0.06706*%
%ADD24C,0.06706*%
%ADD25C,0.19698*%
%ADD26C,0.07887*%
%ADD27C,0.04737*%
%ADD28C,0.04800*%
%ADD50R,0.04343X0.04540*%
%ADD51R,0.04343X0.04540*%
%ADD52R,0.04934X0.03359*%
%ADD53R,0.04147X0.01981*%
%ADD54R,0.01981X0.04147*%
%ADD55R,0.14973X0.14973*%
%ADD56R,0.03950X0.08871*%
G04:AMPARAMS|DCode=57|XSize=29.65mil|YSize=57.21mil|CornerRadius=5.95mil|HoleSize=0mil|Usage=FLASHONLY|Rotation=270.000|XOffset=0mil|YOffset=0mil|HoleType=Round|Shape=RoundedRectangle|*
%AMROUNDEDRECTD57*
21,1,0.02965,0.04532,0,0,270.0*
21,1,0.01776,0.05721,0,0,270.0*
1,1,0.01190,-0.02266,-0.00888*
1,1,0.01190,-0.02266,0.00888*
1,1,0.01190,0.02266,0.00888*
1,1,0.01190,0.02266,-0.00888*
%
%ADD57ROUNDEDRECTD57*%
%ADD58R,0.05918X0.06706*%
D18*
X482500Y231260D02*
D03*
Y238740D02*
D03*
Y252520D02*
D03*
Y260000D02*
D03*
X320000Y211260D02*
D03*
Y218740D02*
D03*
X187500Y108760D02*
D03*
Y116240D02*
D03*
X65000Y108760D02*
D03*
Y116240D02*
D03*
Y98740D02*
D03*
Y91260D02*
D03*
X70000Y301260D02*
D03*
Y308740D02*
D03*
X85000Y321260D02*
D03*
Y328740D02*
D03*
Y403740D02*
D03*
Y396260D02*
D03*
X100000Y403740D02*
D03*
Y396260D02*
D03*
X255000Y276260D02*
D03*
Y283740D02*
D03*
X265000D02*
D03*
Y276260D02*
D03*
X320000Y340000D02*
D03*
Y332520D02*
D03*
X310000Y340000D02*
D03*
Y332520D02*
D03*
X170000Y403740D02*
D03*
Y396260D02*
D03*
X185000Y403740D02*
D03*
Y396260D02*
D03*
X187500Y96240D02*
D03*
Y88760D02*
D03*
X340000Y66260D02*
D03*
Y73740D02*
D03*
X325000Y66260D02*
D03*
Y73740D02*
D03*
X310000Y66260D02*
D03*
Y73740D02*
D03*
X295000Y66260D02*
D03*
Y73740D02*
D03*
X377500Y181240D02*
D03*
Y173760D02*
D03*
X365000Y179980D02*
D03*
Y172500D02*
D03*
X245000Y283740D02*
D03*
Y276260D02*
D03*
X185000Y376260D02*
D03*
X85000D02*
D03*
X265000Y361260D02*
D03*
X330000Y340000D02*
D03*
X100000Y383740D02*
D03*
X280000Y376260D02*
D03*
X200000D02*
D03*
X170000Y383740D02*
D03*
X215000Y361260D02*
D03*
X170000Y376260D02*
D03*
X200000Y396260D02*
D03*
Y403740D02*
D03*
X215000D02*
D03*
Y396260D02*
D03*
X200000Y383740D02*
D03*
X215000D02*
D03*
Y376260D02*
D03*
X265000Y403740D02*
D03*
Y396260D02*
D03*
X280000D02*
D03*
Y403740D02*
D03*
X265000Y383740D02*
D03*
Y376260D02*
D03*
X280000Y383740D02*
D03*
X215000Y368740D02*
D03*
X265000D02*
D03*
X100000Y376260D02*
D03*
X85000Y383740D02*
D03*
X185000D02*
D03*
X340000Y332520D02*
D03*
Y340000D02*
D03*
X330000Y332520D02*
D03*
D19*
X61000Y410000D02*
D03*
X46000D02*
D03*
D20*
X332559Y373898D02*
D03*
Y395551D02*
D03*
X324685Y405000D02*
D03*
X135000Y404685D02*
D03*
X142874Y373583D02*
D03*
Y395236D02*
D03*
D21*
X500000Y260000D02*
D03*
X344000Y150000D02*
D03*
X275000Y180000D02*
D03*
X25000Y200000D02*
D03*
D22*
X500000Y250000D02*
D03*
Y240000D02*
D03*
Y230000D02*
D03*
X344000Y160000D02*
D03*
Y170000D02*
D03*
Y180000D02*
D03*
Y190000D02*
D03*
Y200000D02*
D03*
Y210000D02*
D03*
Y220000D02*
D03*
Y230000D02*
D03*
Y240000D02*
D03*
Y250000D02*
D03*
Y260000D02*
D03*
Y270000D02*
D03*
Y280000D02*
D03*
X275000Y190000D02*
D03*
Y260000D02*
D03*
Y250000D02*
D03*
Y240000D02*
D03*
Y230000D02*
D03*
Y220000D02*
D03*
Y210000D02*
D03*
Y200000D02*
D03*
X25000Y210000D02*
D03*
Y220000D02*
D03*
Y230000D02*
D03*
Y240000D02*
D03*
D23*
X390000Y420000D02*
D03*
D24*
Y410000D02*
D03*
Y400000D02*
D03*
Y390000D02*
D03*
Y380000D02*
D03*
Y370000D02*
D03*
Y360000D02*
D03*
Y350000D02*
D03*
Y340000D02*
D03*
Y330000D02*
D03*
Y320000D02*
D03*
Y310000D02*
D03*
Y300000D02*
D03*
Y290000D02*
D03*
Y280000D02*
D03*
Y270000D02*
D03*
Y260000D02*
D03*
Y250000D02*
D03*
Y240000D02*
D03*
Y230000D02*
D03*
Y220000D02*
D03*
Y210000D02*
D03*
Y200000D02*
D03*
Y190000D02*
D03*
X450000Y420000D02*
D03*
Y410000D02*
D03*
Y400000D02*
D03*
Y390000D02*
D03*
Y380000D02*
D03*
Y370000D02*
D03*
Y360000D02*
D03*
Y350000D02*
D03*
Y340000D02*
D03*
Y330000D02*
D03*
Y320000D02*
D03*
Y310000D02*
D03*
Y300000D02*
D03*
Y290000D02*
D03*
Y280000D02*
D03*
Y270000D02*
D03*
Y260000D02*
D03*
Y250000D02*
D03*
Y240000D02*
D03*
Y230000D02*
D03*
Y220000D02*
D03*
Y210000D02*
D03*
Y200000D02*
D03*
Y190000D02*
D03*
D25*
X77953Y60000D02*
D03*
X122047D02*
D03*
X202953D02*
D03*
X247047D02*
D03*
D26*
X109843Y87559D02*
D03*
X90157D02*
D03*
X100000Y30472D02*
D03*
X109843D02*
D03*
X90157D02*
D03*
X234843Y87559D02*
D03*
X215157D02*
D03*
X225000Y30472D02*
D03*
X234843D02*
D03*
X215157D02*
D03*
D27*
X295000Y60000D02*
D03*
X331000Y87000D02*
D03*
X305000Y219000D02*
D03*
X341000Y92000D02*
D03*
X363000Y224000D02*
D03*
X395000Y375000D02*
D03*
X420000Y402000D02*
D03*
X320000Y39000D02*
D03*
X256400Y291200D02*
D03*
X272103Y275271D02*
D03*
X102300Y179500D02*
D03*
X399000Y234000D02*
D03*
X157200Y224000D02*
D03*
X380200Y145500D02*
D03*
X302600Y340000D02*
D03*
X265000Y334000D02*
D03*
X278000Y330400D02*
D03*
X340000Y59800D02*
D03*
X310000Y59440D02*
D03*
X325000Y59700D02*
D03*
X280500Y245000D02*
D03*
X373600Y355000D02*
D03*
X358800Y290400D02*
D03*
X419400Y177400D02*
D03*
X378600Y318400D02*
D03*
X388040Y181240D02*
D03*
X323800Y344800D02*
D03*
D28*
X302000Y74000D02*
D03*
X305000Y250000D02*
D03*
X283000Y322000D02*
D03*
X435000Y312000D02*
D03*
X260000Y332000D02*
D03*
D50*
X50000Y309626D02*
D03*
X53740Y300374D02*
D03*
D51*
X46260D02*
D03*
D52*
X226669Y279000D02*
D03*
X235331Y275220D02*
D03*
Y282780D02*
D03*
D53*
X255354Y308110D02*
D03*
Y310079D02*
D03*
Y312047D02*
D03*
Y314016D02*
D03*
Y315984D02*
D03*
Y317953D02*
D03*
Y319921D02*
D03*
Y321890D02*
D03*
X274646D02*
D03*
Y319921D02*
D03*
Y317953D02*
D03*
Y315984D02*
D03*
Y314016D02*
D03*
Y312047D02*
D03*
Y310079D02*
D03*
Y308110D02*
D03*
D54*
X258110Y324646D02*
D03*
X260079D02*
D03*
X262047D02*
D03*
X264016D02*
D03*
X265984D02*
D03*
X267953D02*
D03*
X269921D02*
D03*
X271890D02*
D03*
Y305354D02*
D03*
X269921D02*
D03*
X267953D02*
D03*
X265984D02*
D03*
X264016D02*
D03*
X262047D02*
D03*
X260079D02*
D03*
X258110D02*
D03*
D55*
X265000Y315000D02*
D03*
D56*
X60000Y322776D02*
D03*
X50000D02*
D03*
X40000D02*
D03*
Y357224D02*
D03*
X50000D02*
D03*
X60000D02*
D03*
D57*
X229665Y392500D02*
D03*
Y397500D02*
D03*
Y402500D02*
D03*
Y407500D02*
D03*
X250335Y392500D02*
D03*
Y397500D02*
D03*
Y402500D02*
D03*
Y407500D02*
D03*
D58*
X426480Y270000D02*
D03*
X419000D02*
D03*
Y279000D02*
D03*
X426480D02*
D03*
X412520Y418000D02*
D03*
X420000D02*
D03*
X419740Y408500D02*
D03*
X412260D02*
D03*
X133740Y17500D02*
D03*
X126260D02*
D03*
X256240D02*
D03*
X248760D02*
D03*
X186260D02*
D03*
X193740D02*
D03*
X116240D02*
D03*
X108760D02*
D03*
X413500Y394000D02*
D03*
X420980D02*
D03*
X420740Y384000D02*
D03*
X413260D02*
D03*
X206260Y17500D02*
D03*
X213740D02*
D03*
X238740D02*
D03*
X231260D02*
D03*
X80000D02*
D03*
X87480D02*
D03*
X61260D02*
D03*
X68740D02*
D03*
X303740Y315000D02*
D03*
X323740D02*
D03*
X303740Y285000D02*
D03*
X226520Y334000D02*
D03*
X234000D02*
D03*
X316260Y300000D02*
D03*
X323740D02*
D03*
X296260Y285000D02*
D03*
X316260Y315000D02*
D03*
X296260Y300000D02*
D03*
X303740D02*
D03*
X226260Y315000D02*
D03*
X233740D02*
D03*
X261260Y340000D02*
D03*
X268740D02*
D03*
X226260Y325000D02*
D03*
X233740D02*
D03*
Y305000D02*
D03*
X226260D02*
D03*
X296260Y315000D02*
D03*
X243740Y370000D02*
D03*
Y380000D02*
D03*
X236260Y370000D02*
D03*
Y380000D02*
D03*
M02*
