G04*
G04 #@! TF.GenerationSoftware,Altium Limited,Altium Designer,25.8.1 (18)*
G04*
G04 Layer_Physical_Order=1*
G04 Layer_Color=255*
%FSLAX25Y25*%
%MOIN*%
G70*
G04*
G04 #@! TF.SameCoordinates,78B3CC29-387C-40E1-891D-A8741DEB5A0A*
G04*
G04*
G04 #@! TF.FilePolarity,Positive*
G04*
G01*
G75*
%ADD12C,0.01000*%
%ADD17R,0.05906X0.05118*%
%ADD29C,0.00800*%
%ADD30C,0.07284*%
%ADD31O,0.11874X0.05937*%
%ADD32R,0.05906X0.05906*%
%ADD33C,0.05906*%
%ADD34R,0.05906X0.05906*%
%ADD35C,0.05906*%
%ADD36C,0.18898*%
%ADD37C,0.07087*%
%ADD38C,0.03937*%
%ADD39C,0.04000*%
G36*
X275000Y306000D02*
X255000D01*
Y322000D01*
X275000D01*
Y306000D01*
D02*
G37*
D12*
X269000Y216000D02*
X275000Y210000D01*
X269000Y266700D02*
X275700Y273400D01*
X269000Y216000D02*
Y266700D01*
X344300Y46260D02*
X351000Y52960D01*
X344000Y160000D02*
X351000Y153000D01*
Y52960D02*
Y153000D01*
X385000Y362850D02*
X387150Y365000D01*
X385000Y357100D02*
Y362850D01*
Y357100D02*
X387500Y354600D01*
X283000Y322000D02*
X285000Y320000D01*
Y311000D02*
Y320000D01*
X275700Y289250D02*
Y301700D01*
X285000Y311000D01*
X388040Y181240D02*
X404000Y197200D01*
Y399000D02*
X407000Y402000D01*
X404000Y197200D02*
Y399000D01*
X407000Y402000D02*
X420000D01*
X395000Y367150D02*
Y375000D01*
X392850Y365000D02*
X395000Y367150D01*
X420000Y402000D02*
X432000D01*
X450000Y420000D01*
X234843Y60843D02*
Y87559D01*
X225000Y51000D02*
X234843Y60843D01*
X225000Y31742D02*
Y51000D01*
X239518Y46260D02*
X295000D01*
X225000Y31742D02*
X239518Y46260D01*
X225000Y30472D02*
Y31742D01*
X450000Y280000D02*
X500000Y230000D01*
X390000Y280000D02*
X395000Y285000D01*
Y352100D01*
X392500Y354600D02*
X395000Y352100D01*
X387500Y354600D02*
X392500D01*
X387150Y365000D02*
X392850D01*
X256400Y291200D02*
X273750D01*
X275700Y289250D01*
Y273400D02*
Y289250D01*
X295000Y46260D02*
X310000D01*
X325000D01*
X340000D01*
X344300D01*
X250700Y214300D02*
X275000Y190000D01*
X250700Y214300D02*
Y253869D01*
X272103Y275271D01*
D17*
X325000Y53740D02*
D03*
Y46260D02*
D03*
X310000Y53740D02*
D03*
Y46260D02*
D03*
X340000Y53740D02*
D03*
Y46260D02*
D03*
X295000Y53740D02*
D03*
Y46260D02*
D03*
D29*
Y53740D02*
Y60000D01*
X377000Y198000D02*
Y297000D01*
X349000Y170000D02*
X377000Y198000D01*
X344000Y170000D02*
X349000D01*
X344977Y230977D02*
X348977D01*
X352000Y234000D01*
Y265000D01*
X344636Y269364D02*
X347636D01*
X344000Y270000D02*
X344636Y269364D01*
X347636D02*
X352000Y265000D01*
X349000Y255000D02*
Y261453D01*
X344000Y250000D02*
X349000Y255000D01*
X346353Y264100D02*
X349000Y261453D01*
X344000Y230000D02*
X344977Y230977D01*
X335640Y189593D02*
X340147Y194100D01*
X302260Y73740D02*
X335172D01*
X335640Y74209D02*
Y189593D01*
X335172Y73740D02*
X335640Y74209D01*
X331000Y87000D02*
Y331000D01*
X390000Y390000D01*
X302000Y74000D02*
X302260Y73740D01*
X305000Y219000D02*
Y250000D01*
X457000Y350000D02*
X506000Y301000D01*
X500000Y250000D02*
X506000Y256000D01*
Y301000D01*
X450000Y350000D02*
X457000D01*
X340887Y92000D02*
X341000D01*
X338600Y94287D02*
X340887Y92000D01*
X338600Y94287D02*
Y174600D01*
X344000Y180000D01*
Y190000D02*
X351000D01*
X367000Y206000D02*
Y327000D01*
X351000Y190000D02*
X367000Y206000D01*
X390000Y360000D02*
X394000D01*
X398000Y356000D01*
Y240000D02*
Y356000D01*
X382000Y349000D02*
Y367924D01*
X384076Y370000D01*
X390000D01*
X363000Y224000D02*
Y330000D01*
X382000Y349000D01*
X434787Y311787D02*
X435000Y312000D01*
X432287Y311787D02*
X434787D01*
X407000Y286500D02*
X432287Y311787D01*
X440500Y289500D02*
X450000Y280000D01*
X440500Y289500D02*
Y400500D01*
X450000Y410000D01*
X500000Y260000D02*
Y294000D01*
X454000Y340000D02*
X500000Y294000D01*
X450000Y340000D02*
X454000D01*
X320100Y38900D02*
X346300D01*
X320000Y39000D02*
X320100Y38900D01*
X466689Y177400D02*
X504289Y215000D01*
X501250Y245250D02*
X504289Y242211D01*
X419400Y177400D02*
X466689D01*
X504289Y215000D02*
Y242211D01*
X489000Y247500D02*
X491250Y245250D01*
X456000Y310000D02*
X489000Y277000D01*
Y247500D02*
Y277000D01*
X450000Y310000D02*
X456000D01*
X346300Y38900D02*
X407000Y99600D01*
Y286500D01*
X393800Y235800D02*
X398000Y240000D01*
X399000Y234000D02*
X401000Y236000D01*
X395750Y380000D02*
X401000Y374750D01*
Y236000D02*
Y374750D01*
X327067Y341210D02*
Y351067D01*
X386000Y410000D02*
X390000D01*
X327067Y351067D02*
X386000Y410000D01*
X100000Y30472D02*
X109843Y40315D01*
Y87559D01*
X215157Y30472D02*
Y57600D01*
X227300Y69743D01*
Y100600D01*
X287000Y160300D01*
Y301143D01*
X327067Y341210D01*
X230070Y25700D02*
X234843Y30472D01*
X222200Y25700D02*
X230070D01*
X220200Y27700D02*
X222200Y25700D01*
X220200Y27700D02*
Y51200D01*
X229600Y60600D01*
Y98400D01*
X290000Y158800D01*
Y300000D01*
X390000Y400000D01*
X90157Y30472D02*
X102300Y42615D01*
Y179500D01*
X390000Y380000D02*
X395750D01*
X109843Y30472D02*
X157200Y77830D01*
Y224000D01*
X380200Y145500D02*
Y233750D01*
X382250Y235800D01*
X393800D01*
X271000Y340000D02*
X302600D01*
X265000Y334000D02*
X271000Y340000D01*
X260369Y332131D02*
X262100Y330400D01*
X278000D01*
X340000Y53740D02*
Y59800D01*
X310000Y53740D02*
Y59440D01*
X325000Y53740D02*
Y59700D01*
X377000Y297000D02*
X390000Y310000D01*
X367000Y327000D02*
X390000Y350000D01*
X275000Y230000D02*
X280500Y235500D01*
Y245000D01*
X337000Y253000D02*
X344000Y260000D01*
X337000Y207000D02*
Y253000D01*
Y207000D02*
X344000Y200000D01*
X340000Y236000D02*
X344000Y240000D01*
X340000Y214000D02*
Y236000D01*
Y214000D02*
X344000Y210000D01*
X341250Y264100D02*
X346353D01*
X338000Y267350D02*
X341250Y264100D01*
X338000Y267350D02*
Y319400D01*
X373600Y355000D01*
X340147Y194100D02*
X345789D01*
X358800Y207111D01*
Y290400D01*
X491250Y245250D02*
X501250D01*
X378600Y318400D02*
Y328600D01*
X390000Y340000D01*
X323800Y344800D02*
Y372500D01*
X325198Y373898D01*
X332559D01*
D30*
X61000Y410000D02*
D03*
X46000D02*
D03*
D31*
X332559Y373898D02*
D03*
Y395551D02*
D03*
X324685Y405000D02*
D03*
X135000Y404685D02*
D03*
X142874Y373583D02*
D03*
Y395236D02*
D03*
D32*
X500000Y260000D02*
D03*
X344000Y150000D02*
D03*
X275000Y180000D02*
D03*
X25000Y200000D02*
D03*
D33*
X500000Y250000D02*
D03*
Y240000D02*
D03*
Y230000D02*
D03*
X344000Y160000D02*
D03*
Y170000D02*
D03*
Y180000D02*
D03*
Y190000D02*
D03*
Y200000D02*
D03*
Y210000D02*
D03*
Y220000D02*
D03*
Y230000D02*
D03*
Y240000D02*
D03*
Y250000D02*
D03*
Y260000D02*
D03*
Y270000D02*
D03*
Y280000D02*
D03*
X275000Y190000D02*
D03*
Y260000D02*
D03*
Y250000D02*
D03*
Y240000D02*
D03*
Y230000D02*
D03*
Y220000D02*
D03*
Y210000D02*
D03*
Y200000D02*
D03*
X25000Y210000D02*
D03*
Y220000D02*
D03*
Y230000D02*
D03*
Y240000D02*
D03*
D34*
X390000Y420000D02*
D03*
D35*
Y410000D02*
D03*
Y400000D02*
D03*
Y390000D02*
D03*
Y380000D02*
D03*
Y370000D02*
D03*
Y360000D02*
D03*
Y350000D02*
D03*
Y340000D02*
D03*
Y330000D02*
D03*
Y320000D02*
D03*
Y310000D02*
D03*
Y300000D02*
D03*
Y290000D02*
D03*
Y280000D02*
D03*
Y270000D02*
D03*
Y260000D02*
D03*
Y250000D02*
D03*
Y240000D02*
D03*
Y230000D02*
D03*
Y220000D02*
D03*
Y210000D02*
D03*
Y200000D02*
D03*
Y190000D02*
D03*
X450000Y420000D02*
D03*
Y410000D02*
D03*
Y400000D02*
D03*
Y390000D02*
D03*
Y380000D02*
D03*
Y370000D02*
D03*
Y360000D02*
D03*
Y350000D02*
D03*
Y340000D02*
D03*
Y330000D02*
D03*
Y320000D02*
D03*
Y310000D02*
D03*
Y300000D02*
D03*
Y290000D02*
D03*
Y280000D02*
D03*
Y270000D02*
D03*
Y260000D02*
D03*
Y250000D02*
D03*
Y240000D02*
D03*
Y230000D02*
D03*
Y220000D02*
D03*
Y210000D02*
D03*
Y200000D02*
D03*
Y190000D02*
D03*
D36*
X77953Y60000D02*
D03*
X122047D02*
D03*
X202953D02*
D03*
X247047D02*
D03*
D37*
X109843Y87559D02*
D03*
X90157D02*
D03*
X100000Y30472D02*
D03*
X109843D02*
D03*
X90157D02*
D03*
X234843Y87559D02*
D03*
X215157D02*
D03*
X225000Y30472D02*
D03*
X234843D02*
D03*
X215157D02*
D03*
D38*
X295000Y60000D02*
D03*
X331000Y87000D02*
D03*
X305000Y219000D02*
D03*
X341000Y92000D02*
D03*
X363000Y224000D02*
D03*
X395000Y375000D02*
D03*
X420000Y402000D02*
D03*
X320000Y39000D02*
D03*
X256400Y291200D02*
D03*
X272103Y275271D02*
D03*
X102300Y179500D02*
D03*
X399000Y234000D02*
D03*
X157200Y224000D02*
D03*
X380200Y145500D02*
D03*
X302600Y340000D02*
D03*
X265000Y334000D02*
D03*
X278000Y330400D02*
D03*
X340000Y59800D02*
D03*
X310000Y59440D02*
D03*
X325000Y59700D02*
D03*
X280500Y245000D02*
D03*
X373600Y355000D02*
D03*
X358800Y290400D02*
D03*
X419400Y177400D02*
D03*
X378600Y318400D02*
D03*
X388040Y181240D02*
D03*
X323800Y344800D02*
D03*
D39*
X302000Y74000D02*
D03*
X305000Y250000D02*
D03*
X283000Y322000D02*
D03*
X435000Y312000D02*
D03*
X260000Y332000D02*
D03*
M02*
