G04*
G04 #@! TF.GenerationSoftware,Altium Limited,Altium Designer,20.0.13 (296)*
G04*
G04 Layer_Color=255*
%FSLAX25Y25*%
%MOIN*%
G70*
G01*
G75*
%ADD17R,0.05906X0.05118*%
%ADD32C,0.07284*%
%ADD33C,0.03150*%
%ADD34C,0.07677*%
%ADD35C,0.05906*%
%ADD36R,0.05906X0.05906*%
%ADD37R,0.05906X0.05906*%
%ADD38C,0.05906*%
%ADD39R,0.05906X0.05906*%
%ADD40C,0.07087*%
%ADD41C,0.18898*%
D17*
X325000Y46260D02*
D03*
Y53740D02*
D03*
X295000Y46260D02*
D03*
Y53740D02*
D03*
X310000Y46260D02*
D03*
Y53740D02*
D03*
X340000Y46260D02*
D03*
Y53740D02*
D03*
D32*
X46000Y411500D02*
D03*
X61000D02*
D03*
D33*
X324685Y385315D02*
D03*
X344370Y405000D02*
D03*
X305000D02*
D03*
X135000Y385000D02*
D03*
X154685Y404685D02*
D03*
X115315D02*
D03*
D34*
X344370Y385315D02*
D03*
X305000D02*
D03*
X324685Y405000D02*
D03*
X154685Y385000D02*
D03*
X115315D02*
D03*
X135000Y404685D02*
D03*
D35*
X430000Y220000D02*
D03*
X440000D02*
D03*
X450000D02*
D03*
X344000Y280000D02*
D03*
Y270000D02*
D03*
Y260000D02*
D03*
Y250000D02*
D03*
Y240000D02*
D03*
Y230000D02*
D03*
Y220000D02*
D03*
Y210000D02*
D03*
Y200000D02*
D03*
Y190000D02*
D03*
Y180000D02*
D03*
Y170000D02*
D03*
Y160000D02*
D03*
X275000Y200000D02*
D03*
Y210000D02*
D03*
Y220000D02*
D03*
Y230000D02*
D03*
Y240000D02*
D03*
Y250000D02*
D03*
Y260000D02*
D03*
Y190000D02*
D03*
X25000Y240000D02*
D03*
Y230000D02*
D03*
Y220000D02*
D03*
Y210000D02*
D03*
D36*
X460000Y220000D02*
D03*
D37*
X344000Y150000D02*
D03*
X275000Y180000D02*
D03*
X25000Y200000D02*
D03*
D38*
X450000Y290000D02*
D03*
Y300000D02*
D03*
Y310000D02*
D03*
Y320000D02*
D03*
Y330000D02*
D03*
Y340000D02*
D03*
Y350000D02*
D03*
Y360000D02*
D03*
Y370000D02*
D03*
Y380000D02*
D03*
Y390000D02*
D03*
Y400000D02*
D03*
Y410000D02*
D03*
Y420000D02*
D03*
X390000Y290000D02*
D03*
Y300000D02*
D03*
Y310000D02*
D03*
Y320000D02*
D03*
Y330000D02*
D03*
Y340000D02*
D03*
Y350000D02*
D03*
Y360000D02*
D03*
Y370000D02*
D03*
Y380000D02*
D03*
Y390000D02*
D03*
Y400000D02*
D03*
Y410000D02*
D03*
D39*
Y420000D02*
D03*
D40*
X90157Y30472D02*
D03*
X109843D02*
D03*
X100000D02*
D03*
X90157Y87559D02*
D03*
X109843D02*
D03*
X215157Y30472D02*
D03*
X234843D02*
D03*
X225000D02*
D03*
X215157Y87559D02*
D03*
X234843D02*
D03*
D41*
X122047Y60000D02*
D03*
X77953D02*
D03*
X247047D02*
D03*
X202953D02*
D03*
M02*
