G04*
G04 #@! TF.GenerationSoftware,Altium Limited,Altium Designer,20.0.13 (296)*
G04*
G04 Layer_Color=16711935*
%FSLAX25Y25*%
%MOIN*%
G70*
G01*
G75*
%ADD18R,0.06706X0.05918*%
%ADD19C,0.08083*%
%ADD20C,0.03950*%
%ADD21C,0.08477*%
%ADD22C,0.06706*%
%ADD23R,0.06706X0.06706*%
%ADD24R,0.06706X0.06706*%
%ADD25C,0.06706*%
%ADD26R,0.06706X0.06706*%
%ADD27C,0.07887*%
%ADD28C,0.19698*%
%ADD29C,0.04000*%
%ADD53R,0.05918X0.06706*%
%ADD54R,0.14973X0.14973*%
%ADD55R,0.01981X0.04147*%
%ADD56R,0.04147X0.01981*%
%ADD57R,0.04343X0.04540*%
%ADD58R,0.04343X0.04540*%
%ADD59R,0.04934X0.03359*%
%ADD60R,0.03950X0.08871*%
G04:AMPARAMS|DCode=61|XSize=29.65mil|YSize=57.21mil|CornerRadius=5.95mil|HoleSize=0mil|Usage=FLASHONLY|Rotation=270.000|XOffset=0mil|YOffset=0mil|HoleType=Round|Shape=RoundedRectangle|*
%AMROUNDEDRECTD61*
21,1,0.02965,0.04532,0,0,270.0*
21,1,0.01776,0.05721,0,0,270.0*
1,1,0.01190,-0.02266,-0.00888*
1,1,0.01190,-0.02266,0.00888*
1,1,0.01190,0.02266,0.00888*
1,1,0.01190,0.02266,-0.00888*
%
%ADD61ROUNDEDRECTD61*%
D18*
X385000Y137740D02*
D03*
Y130260D02*
D03*
X374000Y137740D02*
D03*
Y130260D02*
D03*
X255000Y283740D02*
D03*
Y276260D02*
D03*
X170000Y383740D02*
D03*
Y376260D02*
D03*
X65000Y31260D02*
D03*
Y38740D02*
D03*
X135000Y31260D02*
D03*
Y38740D02*
D03*
X260000Y31260D02*
D03*
Y38740D02*
D03*
X190000Y31260D02*
D03*
Y38740D02*
D03*
X420000Y401260D02*
D03*
Y408740D02*
D03*
X430000D02*
D03*
Y401260D02*
D03*
X200000Y396260D02*
D03*
Y403740D02*
D03*
X215000D02*
D03*
Y396260D02*
D03*
X200000Y383740D02*
D03*
Y376260D02*
D03*
X215000Y383740D02*
D03*
Y376260D02*
D03*
X265000Y403740D02*
D03*
Y396260D02*
D03*
X280000D02*
D03*
Y403740D02*
D03*
X265000Y383740D02*
D03*
Y376260D02*
D03*
X280000Y383740D02*
D03*
Y376260D02*
D03*
X220000Y276260D02*
D03*
Y283740D02*
D03*
X215000Y361260D02*
D03*
Y368740D02*
D03*
X265000Y361260D02*
D03*
Y368740D02*
D03*
X100000Y383740D02*
D03*
Y376260D02*
D03*
X85000Y383740D02*
D03*
Y376260D02*
D03*
X185000Y383740D02*
D03*
Y376260D02*
D03*
X340000Y73740D02*
D03*
Y66260D02*
D03*
X310000Y73740D02*
D03*
Y66260D02*
D03*
X295000Y73740D02*
D03*
Y66260D02*
D03*
X325000Y73740D02*
D03*
Y66260D02*
D03*
X460000Y236260D02*
D03*
Y243740D02*
D03*
X450000Y236260D02*
D03*
Y243740D02*
D03*
X265000Y276260D02*
D03*
Y283740D02*
D03*
X45000Y383740D02*
D03*
Y376260D02*
D03*
X345000Y351260D02*
D03*
Y358740D02*
D03*
X330000D02*
D03*
Y351260D02*
D03*
X185000Y396260D02*
D03*
Y403740D02*
D03*
X170000Y396260D02*
D03*
Y403740D02*
D03*
X85000Y338740D02*
D03*
Y331260D02*
D03*
X70000Y301260D02*
D03*
Y308740D02*
D03*
X85000D02*
D03*
Y301260D02*
D03*
X60000Y383740D02*
D03*
Y376260D02*
D03*
X85000Y396260D02*
D03*
Y403740D02*
D03*
X100000Y396260D02*
D03*
Y403740D02*
D03*
X320000Y218740D02*
D03*
Y211260D02*
D03*
Y358740D02*
D03*
Y351260D02*
D03*
X305000D02*
D03*
Y358740D02*
D03*
D19*
X46000Y411500D02*
D03*
X61000D02*
D03*
D20*
X324685Y385315D02*
D03*
X344370Y405000D02*
D03*
X305000D02*
D03*
X135000Y385000D02*
D03*
X154685Y404685D02*
D03*
X115315D02*
D03*
D21*
X344370Y385315D02*
D03*
X305000D02*
D03*
X324685Y405000D02*
D03*
X154685Y385000D02*
D03*
X115315D02*
D03*
X135000Y404685D02*
D03*
D22*
X430000Y220000D02*
D03*
X440000D02*
D03*
X450000D02*
D03*
X344000Y280000D02*
D03*
Y270000D02*
D03*
Y260000D02*
D03*
Y250000D02*
D03*
Y240000D02*
D03*
Y230000D02*
D03*
Y220000D02*
D03*
Y210000D02*
D03*
Y200000D02*
D03*
Y190000D02*
D03*
Y180000D02*
D03*
Y170000D02*
D03*
Y160000D02*
D03*
X275000Y200000D02*
D03*
Y210000D02*
D03*
Y220000D02*
D03*
Y230000D02*
D03*
Y240000D02*
D03*
Y250000D02*
D03*
Y260000D02*
D03*
Y190000D02*
D03*
X25000Y240000D02*
D03*
Y230000D02*
D03*
Y220000D02*
D03*
Y210000D02*
D03*
D23*
X460000Y220000D02*
D03*
D24*
X344000Y150000D02*
D03*
X275000Y180000D02*
D03*
X25000Y200000D02*
D03*
D25*
X450000Y290000D02*
D03*
Y300000D02*
D03*
Y310000D02*
D03*
Y320000D02*
D03*
Y330000D02*
D03*
Y340000D02*
D03*
Y350000D02*
D03*
Y360000D02*
D03*
Y370000D02*
D03*
Y380000D02*
D03*
Y390000D02*
D03*
Y400000D02*
D03*
Y410000D02*
D03*
Y420000D02*
D03*
X390000Y290000D02*
D03*
Y300000D02*
D03*
Y310000D02*
D03*
Y320000D02*
D03*
Y330000D02*
D03*
Y340000D02*
D03*
Y350000D02*
D03*
Y360000D02*
D03*
Y370000D02*
D03*
Y380000D02*
D03*
Y390000D02*
D03*
Y400000D02*
D03*
Y410000D02*
D03*
D26*
Y420000D02*
D03*
D27*
X90157Y30472D02*
D03*
X109843D02*
D03*
X100000D02*
D03*
X90157Y87559D02*
D03*
X109843D02*
D03*
X215157Y30472D02*
D03*
X234843D02*
D03*
X225000D02*
D03*
X215157Y87559D02*
D03*
X234843D02*
D03*
D28*
X122047Y60000D02*
D03*
X77953D02*
D03*
X247047D02*
D03*
X202953D02*
D03*
D29*
X307750Y157000D02*
D03*
X255000Y216000D02*
D03*
X319000Y129000D02*
D03*
X331000Y108000D02*
D03*
X360000Y235000D02*
D03*
X320000Y55000D02*
D03*
X350000Y60000D02*
D03*
X273000Y275000D02*
D03*
X302000Y54000D02*
D03*
X316000Y61000D02*
D03*
X282875Y275000D02*
D03*
X408000Y380000D02*
D03*
X194175Y419175D02*
D03*
X282960Y361260D02*
D03*
X284000Y331000D02*
D03*
X291000Y337000D02*
D03*
X283000Y325000D02*
D03*
X278000Y328000D02*
D03*
X261000Y311000D02*
D03*
Y319000D02*
D03*
X269000D02*
D03*
X265000Y314000D02*
D03*
X269000Y311000D02*
D03*
X287500Y300000D02*
D03*
Y307500D02*
D03*
X237500Y352500D02*
D03*
X260000Y262500D02*
D03*
X240000D02*
D03*
X77600Y301300D02*
D03*
X77500Y313100D02*
D03*
X334400Y60900D02*
D03*
X248700Y280000D02*
D03*
X220300Y294300D02*
D03*
X143315Y413000D02*
D03*
X220200Y357400D02*
D03*
X119900Y409035D02*
D03*
X291500Y347400D02*
D03*
X159900Y399900D02*
D03*
X194100Y400400D02*
D03*
X324000Y205800D02*
D03*
X306260Y218740D02*
D03*
X438600Y176100D02*
D03*
X421900Y154200D02*
D03*
X330900Y75700D02*
D03*
X374000Y237400D02*
D03*
X192300Y43800D02*
D03*
X121040Y38740D02*
D03*
X351500Y225800D02*
D03*
X369600Y319600D02*
D03*
X394200Y278500D02*
D03*
D53*
X234000Y334000D02*
D03*
X226520D02*
D03*
X233740Y325000D02*
D03*
X226260D02*
D03*
Y305000D02*
D03*
X233740D02*
D03*
Y315000D02*
D03*
X226260D02*
D03*
X268740Y340000D02*
D03*
X261260D02*
D03*
X323740Y315000D02*
D03*
X316260D02*
D03*
X323740Y300000D02*
D03*
X316260D02*
D03*
X303740Y315000D02*
D03*
X296260D02*
D03*
X303740Y300000D02*
D03*
X296260D02*
D03*
X303740Y285000D02*
D03*
X296260D02*
D03*
X236260Y380000D02*
D03*
X243740D02*
D03*
X236260Y370000D02*
D03*
X243740D02*
D03*
X68740Y20000D02*
D03*
X61260D02*
D03*
X88740D02*
D03*
X81260D02*
D03*
X106260D02*
D03*
X113740D02*
D03*
X126260D02*
D03*
X133740D02*
D03*
X193740D02*
D03*
X186260D02*
D03*
X213740D02*
D03*
X206260D02*
D03*
X231260D02*
D03*
X238740D02*
D03*
X251260D02*
D03*
X258740D02*
D03*
X228740Y100000D02*
D03*
X221260D02*
D03*
X103740D02*
D03*
X96260D02*
D03*
D54*
X265000Y315000D02*
D03*
D55*
X258110Y305354D02*
D03*
X260079D02*
D03*
X262047D02*
D03*
X264016D02*
D03*
X265984D02*
D03*
X267953D02*
D03*
X269921D02*
D03*
X271890D02*
D03*
Y324646D02*
D03*
X269921D02*
D03*
X267953D02*
D03*
X265984D02*
D03*
X264016D02*
D03*
X262047D02*
D03*
X260079D02*
D03*
X258110D02*
D03*
D56*
X274646Y308110D02*
D03*
Y310079D02*
D03*
Y312047D02*
D03*
Y314016D02*
D03*
Y315984D02*
D03*
Y317953D02*
D03*
Y319921D02*
D03*
Y321890D02*
D03*
X255354D02*
D03*
Y319921D02*
D03*
Y317953D02*
D03*
Y315984D02*
D03*
Y314016D02*
D03*
Y312047D02*
D03*
Y310079D02*
D03*
Y308110D02*
D03*
D57*
X53740Y300374D02*
D03*
X50000Y309626D02*
D03*
D58*
X46260Y300374D02*
D03*
D59*
X230669Y276220D02*
D03*
Y283780D02*
D03*
X239331Y280000D02*
D03*
D60*
X60000Y357224D02*
D03*
X50000D02*
D03*
X40000D02*
D03*
Y322776D02*
D03*
X50000D02*
D03*
X60000D02*
D03*
D61*
X250335Y407500D02*
D03*
Y402500D02*
D03*
Y397500D02*
D03*
Y392500D02*
D03*
X229665Y407500D02*
D03*
Y402500D02*
D03*
Y397500D02*
D03*
Y392500D02*
D03*
M02*
