G04*
G04 #@! TF.GenerationSoftware,Altium Limited,Altium Designer,20.0.13 (296)*
G04*
G04 Layer_Color=8388736*
%FSLAX25Y25*%
%MOIN*%
G70*
G01*
G75*
%ADD18R,0.06706X0.05918*%
%ADD19C,0.08083*%
%ADD20C,0.03950*%
%ADD21C,0.08477*%
%ADD22C,0.06706*%
%ADD23R,0.06706X0.06706*%
%ADD24R,0.06706X0.06706*%
%ADD25C,0.06706*%
%ADD26R,0.06706X0.06706*%
%ADD27C,0.07887*%
%ADD28C,0.19698*%
%ADD29C,0.04000*%
D18*
X325000Y46260D02*
D03*
Y53740D02*
D03*
X295000Y46260D02*
D03*
Y53740D02*
D03*
X310000Y46260D02*
D03*
Y53740D02*
D03*
X340000Y46260D02*
D03*
Y53740D02*
D03*
D19*
X46000Y411500D02*
D03*
X61000D02*
D03*
D20*
X324685Y385315D02*
D03*
X344370Y405000D02*
D03*
X305000D02*
D03*
X135000Y385000D02*
D03*
X154685Y404685D02*
D03*
X115315D02*
D03*
D21*
X344370Y385315D02*
D03*
X305000D02*
D03*
X324685Y405000D02*
D03*
X154685Y385000D02*
D03*
X115315D02*
D03*
X135000Y404685D02*
D03*
D22*
X430000Y220000D02*
D03*
X440000D02*
D03*
X450000D02*
D03*
X344000Y280000D02*
D03*
Y270000D02*
D03*
Y260000D02*
D03*
Y250000D02*
D03*
Y240000D02*
D03*
Y230000D02*
D03*
Y220000D02*
D03*
Y210000D02*
D03*
Y200000D02*
D03*
Y190000D02*
D03*
Y180000D02*
D03*
Y170000D02*
D03*
Y160000D02*
D03*
X275000Y200000D02*
D03*
Y210000D02*
D03*
Y220000D02*
D03*
Y230000D02*
D03*
Y240000D02*
D03*
Y250000D02*
D03*
Y260000D02*
D03*
Y190000D02*
D03*
X25000Y240000D02*
D03*
Y230000D02*
D03*
Y220000D02*
D03*
Y210000D02*
D03*
D23*
X460000Y220000D02*
D03*
D24*
X344000Y150000D02*
D03*
X275000Y180000D02*
D03*
X25000Y200000D02*
D03*
D25*
X450000Y290000D02*
D03*
Y300000D02*
D03*
Y310000D02*
D03*
Y320000D02*
D03*
Y330000D02*
D03*
Y340000D02*
D03*
Y350000D02*
D03*
Y360000D02*
D03*
Y370000D02*
D03*
Y380000D02*
D03*
Y390000D02*
D03*
Y400000D02*
D03*
Y410000D02*
D03*
Y420000D02*
D03*
X390000Y290000D02*
D03*
Y300000D02*
D03*
Y310000D02*
D03*
Y320000D02*
D03*
Y330000D02*
D03*
Y340000D02*
D03*
Y350000D02*
D03*
Y360000D02*
D03*
Y370000D02*
D03*
Y380000D02*
D03*
Y390000D02*
D03*
Y400000D02*
D03*
Y410000D02*
D03*
D26*
Y420000D02*
D03*
D27*
X90157Y30472D02*
D03*
X109843D02*
D03*
X100000D02*
D03*
X90157Y87559D02*
D03*
X109843D02*
D03*
X215157Y30472D02*
D03*
X234843D02*
D03*
X225000D02*
D03*
X215157Y87559D02*
D03*
X234843D02*
D03*
D28*
X122047Y60000D02*
D03*
X77953D02*
D03*
X247047D02*
D03*
X202953D02*
D03*
D29*
X307750Y157000D02*
D03*
X255000Y216000D02*
D03*
X319000Y129000D02*
D03*
X331000Y108000D02*
D03*
X360000Y235000D02*
D03*
X320000Y55000D02*
D03*
X350000Y60000D02*
D03*
X273000Y275000D02*
D03*
X302000Y54000D02*
D03*
X316000Y61000D02*
D03*
X282875Y275000D02*
D03*
X408000Y380000D02*
D03*
X194175Y419175D02*
D03*
X282960Y361260D02*
D03*
X284000Y331000D02*
D03*
X291000Y337000D02*
D03*
X283000Y325000D02*
D03*
X278000Y328000D02*
D03*
X261000Y311000D02*
D03*
Y319000D02*
D03*
X269000D02*
D03*
X265000Y314000D02*
D03*
X269000Y311000D02*
D03*
X287500Y300000D02*
D03*
Y307500D02*
D03*
X237500Y352500D02*
D03*
X260000Y262500D02*
D03*
X240000D02*
D03*
X77600Y301300D02*
D03*
X77500Y313100D02*
D03*
X334400Y60900D02*
D03*
X248700Y280000D02*
D03*
X220300Y294300D02*
D03*
X143315Y413000D02*
D03*
X220200Y357400D02*
D03*
X119900Y409035D02*
D03*
X291500Y347400D02*
D03*
X159900Y399900D02*
D03*
X194100Y400400D02*
D03*
X324000Y205800D02*
D03*
X306260Y218740D02*
D03*
X438600Y176100D02*
D03*
X421900Y154200D02*
D03*
X330900Y75700D02*
D03*
X374000Y237400D02*
D03*
X192300Y43800D02*
D03*
X121040Y38740D02*
D03*
X351500Y225800D02*
D03*
X369600Y319600D02*
D03*
X394200Y278500D02*
D03*
M02*
