M48
;Layer_Color=9474304
;FILE_FORMAT=2:5
INCH,LZ
;TYPE=PLATED
T1F00S00C0.01000
T2F00S00C0.03543
T3F00S00C0.04724
T4F00S00C0.04921
T5F00S00C0.05118
T6F00S00C0.12913
;TYPE=NON_PLATED
T7F00S00C0.06299
%
T01
X012104Y003874
X01923Y00438
X0302Y0054
X032Y0055
X0316Y0061
X03344Y00609
X035Y006
X03309Y00757
X0331Y0108
X0319Y0129
X030775Y0157
X030626Y021874
X0324Y02058
X03515Y02258
X04386Y01761
X04219Y01542
X0255Y0216
X00776Y03013
X00775Y03131
X02203Y02943
X02487Y028
X024Y02625
X026
X0273Y0275
X0282875
X0269Y0311
X0265Y0314
X0261Y0311
Y0319
X0269
X0278Y0328
X0283Y0325
X0284Y0331
X028296Y036126
X02375Y03525
X02202Y03574
X02915Y03474
X0291Y0337
X02875Y03075
Y03
X03696Y03196
X03942Y02785
X0374Y02374
X036Y0235
X0408Y038
X01941Y04004
X0194175Y0419175
X01599Y03999
X0143315Y0413
X01199Y0409035
T02
X045Y022
X046
X044
X043
X0344
Y023
Y021
Y02
Y019
Y018
Y017
Y016
Y015
X0275Y018
Y019
Y02
Y021
Y022
Y023
X0025
Y022
Y021
Y02
Y024
X0275
Y025
Y026
X0344
Y027
Y028
Y025
Y024
X039Y029
Y03
Y031
Y032
Y033
Y034
Y035
Y036
Y037
Y038
Y039
X045
Y038
Y037
Y036
Y035
Y034
Y033
Y032
Y031
Y03
Y029
Y04
Y041
Y042
X039
Y041
Y04
T03
X0090157Y0030472
X01
X0109843
X0215157
X0225
X0234843
Y0087559
X0215157
X0109843
X0090157
T04
X0046Y04115
X0061
T05
X0115315Y0385
X0154685
X0305Y0385315
X034437
X0324685Y0405
X0135Y0404685
T06
X0077953Y006
X0122047
X0202953
X0247047
T07
X0135Y0385
X0324685Y0385315
X034437Y0405
X0305
X0154685Y0404685
X0115315
M30
