G04*
G04 #@! TF.GenerationSoftware,Altium Limited,Altium Designer,20.0.13 (296)*
G04*
G04 Layer_Color=32768*
%FSLAX25Y25*%
%MOIN*%
G70*
G01*
G75*
%ADD12C,0.01000*%
%ADD14C,0.02000*%
D12*
X494200Y52700D02*
G03*
X494200Y52700I-6500J0D01*
G01*
X494000Y377500D02*
G03*
X494000Y377500I-6500J0D01*
G01*
X18000Y52500D02*
G03*
X18000Y52500I-6500J0D01*
G01*
Y377500D02*
G03*
X18000Y377500I-6500J0D01*
G01*
D14*
X-40849Y46387D02*
G03*
X-34599Y40137I6250J0D01*
G01*
Y390408D02*
G03*
X-40849Y384158I0J-6250D01*
G01*
X-22382Y390408D02*
G03*
X-518Y412273I0J21865D01*
G01*
X5732Y430989D02*
G03*
X-518Y424739I0J-6250D01*
G01*
X499753D02*
G03*
X493503Y430989I-6250J0D01*
G01*
X499753Y412273D02*
G03*
X521618Y390408I21865J0D01*
G01*
X540085Y384158D02*
G03*
X533835Y390408I-6250J0D01*
G01*
Y40137D02*
G03*
X540085Y46387I0J6250D01*
G01*
X521618Y40137D02*
G03*
X499753Y18272I0J-21865D01*
G01*
X493503Y-444D02*
G03*
X499753Y5806I0J6250D01*
G01*
X-518D02*
G03*
X5732Y-444I6250J0D01*
G01*
X-518Y18272D02*
G03*
X-22382Y40137I-21865J0D01*
G01*
X-40849Y46387D02*
Y384158D01*
X-34599Y390408D02*
X-22382D01*
X-518Y412273D02*
Y424739D01*
X5732Y430989D02*
X493503D01*
X499753Y412273D02*
Y424739D01*
X521618Y390408D02*
X533834D01*
X540084Y46387D02*
Y384158D01*
X521618Y40137D02*
X533834D01*
X499753Y5806D02*
Y18273D01*
X5732Y-444D02*
X493503D01*
X-518Y5806D02*
Y18273D01*
X-34599Y40137D02*
X-22382D01*
M02*
