G04*
G04 #@! TF.GenerationSoftware,Altium Limited,Altium Designer,20.0.13 (296)*
G04*
G04 Layer_Physical_Order=1*
G04 Layer_Color=255*
%FSLAX25Y25*%
%MOIN*%
G70*
G01*
G75*
%ADD17R,0.05906X0.05118*%
%ADD30C,0.00800*%
%ADD31C,0.01200*%
%ADD32C,0.07284*%
%ADD33C,0.03150*%
%ADD34C,0.07677*%
%ADD35C,0.05906*%
%ADD36R,0.05906X0.05906*%
%ADD37R,0.05906X0.05906*%
%ADD38C,0.05906*%
%ADD39R,0.05906X0.05906*%
%ADD40C,0.07087*%
%ADD41C,0.18898*%
%ADD42C,0.03200*%
G36*
X275000Y306000D02*
X255000D01*
Y322000D01*
X275000D01*
Y306000D01*
D02*
G37*
D17*
X325000Y46260D02*
D03*
Y53740D02*
D03*
X295000Y46260D02*
D03*
Y53740D02*
D03*
X310000Y46260D02*
D03*
Y53740D02*
D03*
X340000Y46260D02*
D03*
Y53740D02*
D03*
D30*
X307750Y146250D02*
X319000Y135000D01*
X307750Y146250D02*
Y157000D01*
X319000Y129000D02*
Y135000D01*
X445469Y355000D02*
X455400D01*
X445000Y345000D02*
Y354531D01*
X445469Y355000D01*
X455400D02*
X467500Y342900D01*
X445000Y345000D02*
X450000Y340000D01*
X360000Y235000D02*
Y330000D01*
X390000Y360000D01*
X380000Y377000D02*
Y400000D01*
X285000Y282000D02*
X380000Y377000D01*
Y400000D02*
X390000Y410000D01*
X352000Y165000D02*
X400000Y213000D01*
Y390000D01*
X390000Y400000D02*
X400000Y390000D01*
X344000Y190000D02*
X365000Y211000D01*
Y325000D02*
X390000Y350000D01*
X365000Y211000D02*
Y325000D01*
X351500Y341500D02*
X380000Y370000D01*
X351500Y225800D02*
Y341500D01*
X380000Y370000D02*
X390000D01*
X320000Y55000D02*
X323740D01*
X325000Y53740D01*
X346260Y60000D02*
X350000D01*
X340000Y53740D02*
X346260Y60000D01*
X313398Y185800D02*
X350800D01*
X370800Y205800D02*
Y308200D01*
X350800Y185800D02*
X370800Y205800D01*
X377300Y200300D02*
Y297300D01*
X344000Y170000D02*
X344636Y170636D01*
X347636D01*
X377300Y200300D01*
X340000Y165000D02*
X352000D01*
X324000Y82600D02*
X330900Y75700D01*
X324000Y168400D02*
X339800Y184200D01*
X324000Y82600D02*
Y168400D01*
X297900Y54000D02*
X302000D01*
X310000Y53740D02*
Y60531D01*
X310469Y61000D01*
X316000D01*
X464100Y234100D02*
Y339900D01*
X450000Y350000D02*
X454000D01*
X464100Y339900D01*
X271000Y282000D02*
X285000D01*
X260000Y262500D02*
Y271000D01*
X271000Y282000D01*
X282875Y275000D02*
X283000D01*
X324000Y234000D01*
X121040Y38740D02*
X139780Y20000D01*
X393000Y20000D02*
X473000Y100000D01*
X139780Y20000D02*
X393000Y20000D01*
X473000Y100000D02*
Y399000D01*
X467000Y405000D02*
X473000Y399000D01*
X442000Y405000D02*
X467000D01*
X417000Y380000D02*
X442000Y405000D01*
X408000Y380000D02*
X417000D01*
X194100Y419100D02*
X194175Y419175D01*
X194100Y400400D02*
Y419100D01*
X282960Y332669D02*
Y361260D01*
Y332669D02*
X284000Y331628D01*
Y331000D02*
Y331628D01*
X291000Y337000D02*
Y346900D01*
X291500Y347400D01*
X243358Y324000D02*
X281351D01*
X282351Y325000D02*
X283000D01*
X281351Y324000D02*
X282351Y325000D01*
X273400Y328000D02*
X278000D01*
X244000Y357400D02*
X273400Y328000D01*
X287500Y300000D02*
Y307500D01*
X444247Y181747D02*
Y294247D01*
X438600Y176100D02*
X444247Y181747D01*
Y294247D02*
X450000Y300000D01*
X460000Y220000D02*
X467500Y227500D01*
Y342900D01*
X335000Y209000D02*
X344000Y200000D01*
X335000Y251000D02*
X344000Y260000D01*
X335000Y209000D02*
Y251000D01*
X336800Y161800D02*
X340000Y165000D01*
X336800Y158200D02*
X340847Y154153D01*
X336800Y158200D02*
Y161800D01*
X340847Y154153D02*
X352031D01*
X421900Y154200D02*
X429200D01*
X445847Y170847D02*
Y222800D01*
X429200Y154200D02*
X445847Y170847D01*
X334900Y60900D02*
X352500Y78500D01*
Y153684D01*
X352031Y154153D02*
X352500Y153684D01*
X192300Y214800D02*
X240000Y262500D01*
X192300Y43800D02*
Y214800D01*
X334400Y60900D02*
X334900D01*
X215157Y87559D02*
X313398Y185800D01*
X370800Y308200D02*
X387600Y325000D01*
X392400D01*
X395753Y328353D01*
Y384247D01*
X390000Y390000D02*
X395753Y384247D01*
X220200Y357400D02*
X244000D01*
X119900Y389585D02*
Y409035D01*
X115315Y385000D02*
X119900Y389585D01*
X154685Y394685D02*
X159900Y399900D01*
X154685Y385000D02*
Y394685D01*
X324000Y205800D02*
Y234000D01*
X450000Y220000D02*
X464100Y234100D01*
X377300Y297300D02*
X390000Y310000D01*
X305000Y190000D02*
X344000D01*
X275000Y220000D02*
X305000Y190000D01*
Y200000D02*
X344000D01*
X275000Y230000D02*
X305000Y200000D01*
X339800Y214200D02*
X344000Y210000D01*
X339800Y214200D02*
Y235800D01*
X344000Y240000D01*
X275000Y250000D02*
X306260Y218740D01*
X344000Y230000D02*
X348300Y234300D01*
Y265700D01*
X344000Y270000D02*
X348300Y265700D01*
X445847Y222800D02*
X454300Y231253D01*
Y305700D01*
X450000Y310000D02*
X454300Y305700D01*
X339800Y184200D02*
X355200D01*
X374000Y203000D01*
Y237400D01*
X369600Y319600D02*
X390000Y340000D01*
Y320000D02*
X394200Y315800D01*
Y278500D02*
Y315800D01*
D31*
X255000Y216000D02*
Y273700D01*
X248700Y280000D02*
X255000Y273700D01*
X243358Y285342D02*
X248700Y280000D01*
X331000Y108000D02*
Y167000D01*
X344000Y180000D01*
X270640Y275000D02*
X273000D01*
X266000Y270360D02*
X270640Y275000D01*
X347045Y156955D02*
X356797D01*
X357500Y156252D01*
Y54500D02*
Y156252D01*
X340000Y46260D02*
X349260D01*
X357500Y54500D01*
X266000Y199000D02*
X275000Y190000D01*
X266000Y199000D02*
Y270360D01*
X243358Y324000D02*
Y335102D01*
Y289142D02*
Y324000D01*
X237500Y340960D02*
Y352500D01*
Y340960D02*
X243358Y335102D01*
X344000Y160000D02*
X347045Y156955D01*
X243358Y285342D02*
Y289142D01*
X238200Y294300D02*
X243358Y289142D01*
X220300Y294300D02*
X238200D01*
X77500Y301400D02*
Y313100D01*
Y301400D02*
X77600Y301300D01*
X234843Y40315D02*
X240787Y46260D01*
X440000Y390000D02*
X450000Y400000D01*
X440000Y220000D02*
Y390000D01*
X344000Y160000D02*
X370000D01*
X430000Y220000D01*
X135000Y404685D02*
X143315Y413000D01*
X109843Y40315D02*
Y87559D01*
X100000Y30472D02*
X109843Y40315D01*
X295000Y46260D02*
X310000D01*
X325000D01*
X340000D01*
X240787D02*
X295000D01*
X234843Y40315D02*
Y87559D01*
X225000Y30472D02*
X234843Y40315D01*
D32*
X46000Y411500D02*
D03*
X61000D02*
D03*
D33*
X324685Y385315D02*
D03*
X344370Y405000D02*
D03*
X305000D02*
D03*
X135000Y385000D02*
D03*
X154685Y404685D02*
D03*
X115315D02*
D03*
D34*
X344370Y385315D02*
D03*
X305000D02*
D03*
X324685Y405000D02*
D03*
X154685Y385000D02*
D03*
X115315D02*
D03*
X135000Y404685D02*
D03*
D35*
X430000Y220000D02*
D03*
X440000D02*
D03*
X450000D02*
D03*
X344000Y280000D02*
D03*
Y270000D02*
D03*
Y260000D02*
D03*
Y250000D02*
D03*
Y240000D02*
D03*
Y230000D02*
D03*
Y220000D02*
D03*
Y210000D02*
D03*
Y200000D02*
D03*
Y190000D02*
D03*
Y180000D02*
D03*
Y170000D02*
D03*
Y160000D02*
D03*
X275000Y200000D02*
D03*
Y210000D02*
D03*
Y220000D02*
D03*
Y230000D02*
D03*
Y240000D02*
D03*
Y250000D02*
D03*
Y260000D02*
D03*
Y190000D02*
D03*
X25000Y240000D02*
D03*
Y230000D02*
D03*
Y220000D02*
D03*
Y210000D02*
D03*
D36*
X460000Y220000D02*
D03*
D37*
X344000Y150000D02*
D03*
X275000Y180000D02*
D03*
X25000Y200000D02*
D03*
D38*
X450000Y290000D02*
D03*
Y300000D02*
D03*
Y310000D02*
D03*
Y320000D02*
D03*
Y330000D02*
D03*
Y340000D02*
D03*
Y350000D02*
D03*
Y360000D02*
D03*
Y370000D02*
D03*
Y380000D02*
D03*
Y390000D02*
D03*
Y400000D02*
D03*
Y410000D02*
D03*
Y420000D02*
D03*
X390000Y290000D02*
D03*
Y300000D02*
D03*
Y310000D02*
D03*
Y320000D02*
D03*
Y330000D02*
D03*
Y340000D02*
D03*
Y350000D02*
D03*
Y360000D02*
D03*
Y370000D02*
D03*
Y380000D02*
D03*
Y390000D02*
D03*
Y400000D02*
D03*
Y410000D02*
D03*
D39*
Y420000D02*
D03*
D40*
X90157Y30472D02*
D03*
X109843D02*
D03*
X100000D02*
D03*
X90157Y87559D02*
D03*
X109843D02*
D03*
X215157Y30472D02*
D03*
X234843D02*
D03*
X225000D02*
D03*
X215157Y87559D02*
D03*
X234843D02*
D03*
D41*
X122047Y60000D02*
D03*
X77953D02*
D03*
X247047D02*
D03*
X202953D02*
D03*
D42*
X307750Y157000D02*
D03*
X255000Y216000D02*
D03*
X319000Y129000D02*
D03*
X331000Y108000D02*
D03*
X360000Y235000D02*
D03*
X320000Y55000D02*
D03*
X350000Y60000D02*
D03*
X273000Y275000D02*
D03*
X302000Y54000D02*
D03*
X316000Y61000D02*
D03*
X282875Y275000D02*
D03*
X408000Y380000D02*
D03*
X194175Y419175D02*
D03*
X282960Y361260D02*
D03*
X284000Y331000D02*
D03*
X291000Y337000D02*
D03*
X283000Y325000D02*
D03*
X278000Y328000D02*
D03*
X261000Y311000D02*
D03*
Y319000D02*
D03*
X269000D02*
D03*
X265000Y314000D02*
D03*
X269000Y311000D02*
D03*
X287500Y300000D02*
D03*
Y307500D02*
D03*
X237500Y352500D02*
D03*
X260000Y262500D02*
D03*
X240000D02*
D03*
X77600Y301300D02*
D03*
X77500Y313100D02*
D03*
X334400Y60900D02*
D03*
X248700Y280000D02*
D03*
X220300Y294300D02*
D03*
X143315Y413000D02*
D03*
X220200Y357400D02*
D03*
X119900Y409035D02*
D03*
X291500Y347400D02*
D03*
X159900Y399900D02*
D03*
X194100Y400400D02*
D03*
X324000Y205800D02*
D03*
X306260Y218740D02*
D03*
X438600Y176100D02*
D03*
X421900Y154200D02*
D03*
X330900Y75700D02*
D03*
X374000Y237400D02*
D03*
X192300Y43800D02*
D03*
X121040Y38740D02*
D03*
X351500Y225800D02*
D03*
X369600Y319600D02*
D03*
X394200Y278500D02*
D03*
M02*
