G04*
G04 #@! TF.GenerationSoftware,Altium Limited,Altium Designer,20.0.13 (296)*
G04*
G04 Layer_Color=32896*
%FSLAX25Y25*%
%MOIN*%
G70*
G01*
G75*
%ADD10C,0.00984*%
%ADD11C,0.00787*%
%ADD16C,0.00500*%
%ADD62C,0.02362*%
D10*
X254173Y305157D02*
G03*
X254173Y305157I-492J0D01*
G01*
X58169Y300374D02*
G03*
X58169Y300374I-492J0D01*
G01*
X230157Y389252D02*
G03*
X230157Y389252I-492J0D01*
G01*
D11*
X237740Y331441D02*
Y336559D01*
X252441Y287480D02*
X257559D01*
X44882Y309626D02*
X46654D01*
X53346D02*
X55118D01*
Y303819D02*
Y309626D01*
X44882Y303819D02*
Y309626D01*
X234114Y274291D02*
X235886D01*
Y285709D01*
X234114D02*
X235886D01*
X234114Y274291D02*
Y285709D01*
X228602Y273957D02*
X232736D01*
X62953Y318740D02*
Y326811D01*
X33504Y328189D02*
X66496D01*
X33504D02*
Y351811D01*
X66496D01*
Y328189D02*
Y351811D01*
X233701Y409843D02*
X246299D01*
X233701Y390157D02*
X246299D01*
Y409843D01*
X233701Y390157D02*
Y409843D01*
X417441Y397520D02*
X422559D01*
D16*
X389999Y141500D02*
Y144500D01*
X388499D01*
X387999Y144000D01*
Y143000D01*
X388499Y142500D01*
X389999D01*
X388999D02*
X387999Y141500D01*
X387000Y144000D02*
X386500Y144500D01*
X385500D01*
X385000Y144000D01*
Y143500D01*
X385500Y143000D01*
X386000D01*
X385500D01*
X385000Y142500D01*
Y142000D01*
X385500Y141500D01*
X386500D01*
X387000Y142000D01*
X384001D02*
X383501Y141500D01*
X382501D01*
X382001Y142000D01*
Y144000D01*
X382501Y144500D01*
X383501D01*
X384001Y144000D01*
Y143500D01*
X383501Y143000D01*
X382001D01*
X377999Y141500D02*
Y144500D01*
X376499D01*
X375999Y144000D01*
Y143000D01*
X376499Y142500D01*
X377999D01*
X376999D02*
X375999Y141500D01*
X375000Y144000D02*
X374500Y144500D01*
X373500D01*
X373000Y144000D01*
Y143500D01*
X373500Y143000D01*
X374000D01*
X373500D01*
X373000Y142500D01*
Y142000D01*
X373500Y141500D01*
X374500D01*
X375000Y142000D01*
X372001Y144000D02*
X371501Y144500D01*
X370501D01*
X370001Y144000D01*
Y143500D01*
X370501Y143000D01*
X370001Y142500D01*
Y142000D01*
X370501Y141500D01*
X371501D01*
X372001Y142000D01*
Y142500D01*
X371501Y143000D01*
X372001Y143500D01*
Y144000D01*
X371501Y143000D02*
X370501D01*
X219999Y335000D02*
X220499Y335500D01*
X221499D01*
X221999Y335000D01*
Y333000D01*
X221499Y332501D01*
X220499D01*
X219999Y333000D01*
X217000Y332501D02*
X219000D01*
X217000Y334500D01*
Y335000D01*
X217500Y335500D01*
X218500D01*
X219000Y335000D01*
X214001Y335500D02*
X216001D01*
Y334000D01*
X215001Y334500D01*
X214501D01*
X214001Y334000D01*
Y333000D01*
X214501Y332501D01*
X215501D01*
X216001Y333000D01*
X173999Y368500D02*
Y371499D01*
X172499D01*
X171999Y371000D01*
Y370000D01*
X172499Y369500D01*
X173999D01*
X172999D02*
X171999Y368500D01*
X171000Y371000D02*
X170500Y371499D01*
X169500D01*
X169000Y371000D01*
Y370500D01*
X169500Y370000D01*
X170000D01*
X169500D01*
X169000Y369500D01*
Y369000D01*
X169500Y368500D01*
X170500D01*
X171000Y369000D01*
X166001Y371499D02*
X167001Y371000D01*
X168001Y370000D01*
Y369000D01*
X167501Y368500D01*
X166501D01*
X166001Y369000D01*
Y369500D01*
X166501Y370000D01*
X168001D01*
X103999Y368500D02*
Y371499D01*
X102499D01*
X101999Y371000D01*
Y370000D01*
X102499Y369500D01*
X103999D01*
X102999D02*
X101999Y368500D01*
X99000D02*
X101000D01*
X99000Y370500D01*
Y371000D01*
X99500Y371499D01*
X100500D01*
X101000Y371000D01*
X98001D02*
X97501Y371499D01*
X96501D01*
X96001Y371000D01*
Y370500D01*
X96501Y370000D01*
X96001Y369500D01*
Y369000D01*
X96501Y368500D01*
X97501D01*
X98001Y369000D01*
Y369500D01*
X97501Y370000D01*
X98001Y370500D01*
Y371000D01*
X97501Y370000D02*
X96501D01*
X188999Y368500D02*
Y371499D01*
X187499D01*
X186999Y371000D01*
Y370000D01*
X187499Y369500D01*
X188999D01*
X187999D02*
X186999Y368500D01*
X186000Y371000D02*
X185500Y371499D01*
X184500D01*
X184000Y371000D01*
Y370500D01*
X184500Y370000D01*
X185000D01*
X184500D01*
X184000Y369500D01*
Y369000D01*
X184500Y368500D01*
X185500D01*
X186000Y369000D01*
X183001Y371000D02*
X182501Y371499D01*
X181501D01*
X181001Y371000D01*
Y370500D01*
X181501Y370000D01*
X182001D01*
X181501D01*
X181001Y369500D01*
Y369000D01*
X181501Y368500D01*
X182501D01*
X183001Y369000D01*
X88999Y368500D02*
Y371499D01*
X87499D01*
X86999Y371000D01*
Y370000D01*
X87499Y369500D01*
X88999D01*
X87999D02*
X86999Y368500D01*
X84000D02*
X86000D01*
X84000Y370500D01*
Y371000D01*
X84500Y371499D01*
X85500D01*
X86000Y371000D01*
X81001Y371499D02*
X83001D01*
Y370000D01*
X82001Y370500D01*
X81501D01*
X81001Y370000D01*
Y369000D01*
X81501Y368500D01*
X82501D01*
X83001Y369000D01*
X210749Y283000D02*
X211249Y283500D01*
X212249D01*
X212749Y283000D01*
Y281000D01*
X212249Y280501D01*
X211249D01*
X210749Y281000D01*
X209750Y280501D02*
X208750D01*
X209250D01*
Y283500D01*
X209750Y283000D01*
X205251Y280501D02*
X207251D01*
X205251Y282500D01*
Y283000D01*
X205751Y283500D01*
X206751D01*
X207251Y283000D01*
X230499Y386500D02*
Y384000D01*
X229999Y383501D01*
X229000D01*
X228500Y384000D01*
Y386500D01*
X227500D02*
X225501D01*
Y386000D01*
X227500Y384000D01*
Y383501D01*
X37400Y367799D02*
Y365300D01*
X36900Y364800D01*
X35901D01*
X35401Y365300D01*
Y367799D01*
X32402D02*
X33401Y367299D01*
X34401Y366300D01*
Y365300D01*
X33901Y364800D01*
X32901D01*
X32402Y365300D01*
Y365800D01*
X32901Y366300D01*
X34401D01*
X252499Y301500D02*
Y299000D01*
X251999Y298500D01*
X251000D01*
X250500Y299000D01*
Y301500D01*
X247501D02*
X249500D01*
Y300000D01*
X248500Y300500D01*
X248001D01*
X247501Y300000D01*
Y299000D01*
X248001Y298500D01*
X249000D01*
X249500Y299000D01*
X237499Y291499D02*
Y289000D01*
X236999Y288500D01*
X236000D01*
X235500Y289000D01*
Y291499D01*
X233001Y288500D02*
Y291499D01*
X234500Y290000D01*
X232501D01*
X284999Y407501D02*
Y410499D01*
X283499D01*
X282999Y410000D01*
Y409000D01*
X283499Y408500D01*
X284999D01*
X283999D02*
X282999Y407501D01*
X282000Y410000D02*
X281500Y410499D01*
X280500D01*
X280000Y410000D01*
Y409500D01*
X280500Y409000D01*
X281000D01*
X280500D01*
X280000Y408500D01*
Y408000D01*
X280500Y407501D01*
X281500D01*
X282000Y408000D01*
X279001Y410499D02*
X277001D01*
Y410000D01*
X279001Y408000D01*
Y407501D01*
X175100Y409200D02*
Y412199D01*
X173600D01*
X173101Y411699D01*
Y410700D01*
X173600Y410200D01*
X175100D01*
X174100D02*
X173101Y409200D01*
X172101Y411699D02*
X171601Y412199D01*
X170601D01*
X170102Y411699D01*
Y411199D01*
X170601Y410700D01*
X171101D01*
X170601D01*
X170102Y410200D01*
Y409700D01*
X170601Y409200D01*
X171601D01*
X172101Y409700D01*
X167103Y412199D02*
X169102D01*
Y410700D01*
X168102Y411199D01*
X167602D01*
X167103Y410700D01*
Y409700D01*
X167602Y409200D01*
X168602D01*
X169102Y409700D01*
X270999Y387501D02*
Y390499D01*
X269499D01*
X268999Y390000D01*
Y389000D01*
X269499Y388500D01*
X270999D01*
X269999D02*
X268999Y387501D01*
X268000Y390000D02*
X267500Y390499D01*
X266500D01*
X266000Y390000D01*
Y389500D01*
X266500Y389000D01*
X267000D01*
X266500D01*
X266000Y388500D01*
Y388000D01*
X266500Y387501D01*
X267500D01*
X268000Y388000D01*
X263501Y387501D02*
Y390499D01*
X265001Y389000D01*
X263001D01*
X269999Y407501D02*
Y410499D01*
X268499D01*
X267999Y410000D01*
Y409000D01*
X268499Y408500D01*
X269999D01*
X268999D02*
X267999Y407501D01*
X267000Y410000D02*
X266500Y410499D01*
X265500D01*
X265000Y410000D01*
Y409500D01*
X265500Y409000D01*
X266000D01*
X265500D01*
X265000Y408500D01*
Y408000D01*
X265500Y407501D01*
X266500D01*
X267000Y408000D01*
X262001Y407501D02*
X264001D01*
X262001Y409500D01*
Y410000D01*
X262501Y410499D01*
X263501D01*
X264001Y410000D01*
X349100Y364200D02*
Y367199D01*
X347601D01*
X347101Y366699D01*
Y365700D01*
X347601Y365200D01*
X349100D01*
X348100D02*
X347101Y364200D01*
X346101Y366699D02*
X345601Y367199D01*
X344601D01*
X344102Y366699D01*
Y366199D01*
X344601Y365700D01*
X345101D01*
X344601D01*
X344102Y365200D01*
Y364700D01*
X344601Y364200D01*
X345601D01*
X346101Y364700D01*
X343102Y364200D02*
X342102D01*
X342602D01*
Y367199D01*
X343102Y366699D01*
X310100Y364200D02*
Y367199D01*
X308600D01*
X308101Y366699D01*
Y365700D01*
X308600Y365200D01*
X310100D01*
X309100D02*
X308101Y364200D01*
X307101Y366699D02*
X306601Y367199D01*
X305602D01*
X305102Y366699D01*
Y366199D01*
X305602Y365700D01*
X306101D01*
X305602D01*
X305102Y365200D01*
Y364700D01*
X305602Y364200D01*
X306601D01*
X307101Y364700D01*
X304102Y366699D02*
X303602Y367199D01*
X302602D01*
X302103Y366699D01*
Y364700D01*
X302602Y364200D01*
X303602D01*
X304102Y364700D01*
Y366699D01*
X204999Y407501D02*
Y410499D01*
X203499D01*
X202999Y410000D01*
Y409000D01*
X203499Y408500D01*
X204999D01*
X203999D02*
X202999Y407501D01*
X200000D02*
X202000D01*
X200000Y409500D01*
Y410000D01*
X200500Y410499D01*
X201500D01*
X202000Y410000D01*
X199001Y408000D02*
X198501Y407501D01*
X197501D01*
X197001Y408000D01*
Y410000D01*
X197501Y410499D01*
X198501D01*
X199001Y410000D01*
Y409500D01*
X198501Y409000D01*
X197001D01*
X105100Y409200D02*
Y412199D01*
X103601D01*
X103101Y411699D01*
Y410700D01*
X103601Y410200D01*
X105100D01*
X104100D02*
X103101Y409200D01*
X100102D02*
X102101D01*
X100102Y411199D01*
Y411699D01*
X100601Y412199D01*
X101601D01*
X102101Y411699D01*
X99102Y412199D02*
X97103D01*
Y411699D01*
X99102Y409700D01*
Y409200D01*
X219999Y387501D02*
Y390499D01*
X218499D01*
X217999Y390000D01*
Y389000D01*
X218499Y388500D01*
X219999D01*
X218999D02*
X217999Y387501D01*
X215000D02*
X217000D01*
X215000Y389500D01*
Y390000D01*
X215500Y390499D01*
X216500D01*
X217000Y390000D01*
X212001Y390499D02*
X213001Y390000D01*
X214001Y389000D01*
Y388000D01*
X213501Y387501D01*
X212501D01*
X212001Y388000D01*
Y388500D01*
X212501Y389000D01*
X214001D01*
X220999Y407501D02*
Y410499D01*
X219499D01*
X218999Y410000D01*
Y409000D01*
X219499Y408500D01*
X220999D01*
X219999D02*
X218999Y407501D01*
X216000D02*
X218000D01*
X216000Y409500D01*
Y410000D01*
X216500Y410499D01*
X217500D01*
X218000Y410000D01*
X213501Y407501D02*
Y410499D01*
X215001Y409000D01*
X213001D01*
X90100Y344200D02*
Y347199D01*
X88600D01*
X88101Y346699D01*
Y345700D01*
X88600Y345200D01*
X90100D01*
X89100D02*
X88101Y344200D01*
X85102D02*
X87101D01*
X85102Y346199D01*
Y346699D01*
X85602Y347199D01*
X86601D01*
X87101Y346699D01*
X84102D02*
X83602Y347199D01*
X82603D01*
X82103Y346699D01*
Y346199D01*
X82603Y345700D01*
X83102D01*
X82603D01*
X82103Y345200D01*
Y344700D01*
X82603Y344200D01*
X83602D01*
X84102Y344700D01*
X75100Y314200D02*
Y317199D01*
X73601D01*
X73101Y316699D01*
Y315700D01*
X73601Y315200D01*
X75100D01*
X74100D02*
X73101Y314200D01*
X70102D02*
X72101D01*
X70102Y316199D01*
Y316699D01*
X70601Y317199D01*
X71601D01*
X72101Y316699D01*
X67103Y314200D02*
X69102D01*
X67103Y316199D01*
Y316699D01*
X67602Y317199D01*
X68602D01*
X69102Y316699D01*
X89100Y314200D02*
Y317199D01*
X87600D01*
X87101Y316699D01*
Y315700D01*
X87600Y315200D01*
X89100D01*
X88100D02*
X87101Y314200D01*
X84102D02*
X86101D01*
X84102Y316199D01*
Y316699D01*
X84601Y317199D01*
X85601D01*
X86101Y316699D01*
X83102Y314200D02*
X82102D01*
X82602D01*
Y317199D01*
X83102Y316699D01*
X325100Y224200D02*
Y227199D01*
X323601D01*
X323101Y226699D01*
Y225699D01*
X323601Y225200D01*
X325100D01*
X324100D02*
X323101Y224200D01*
X320102D02*
X322101D01*
X320102Y226199D01*
Y226699D01*
X320602Y227199D01*
X321601D01*
X322101Y226699D01*
X319102D02*
X318602Y227199D01*
X317602D01*
X317103Y226699D01*
Y224700D01*
X317602Y224200D01*
X318602D01*
X319102Y224700D01*
Y226699D01*
X324749Y304501D02*
Y307500D01*
X323249D01*
X322749Y307000D01*
Y306000D01*
X323249Y305500D01*
X324749D01*
X323749D02*
X322749Y304501D01*
X321750D02*
X320750D01*
X321250D01*
Y307500D01*
X321750Y307000D01*
X319251Y305000D02*
X318751Y304501D01*
X317751D01*
X317251Y305000D01*
Y307000D01*
X317751Y307500D01*
X318751D01*
X319251Y307000D01*
Y306500D01*
X318751Y306000D01*
X317251D01*
X304749Y289500D02*
Y292499D01*
X303249D01*
X302749Y292000D01*
Y291000D01*
X303249Y290500D01*
X304749D01*
X303749D02*
X302749Y289500D01*
X301750D02*
X300750D01*
X301250D01*
Y292499D01*
X301750Y292000D01*
X299251D02*
X298751Y292499D01*
X297751D01*
X297251Y292000D01*
Y291500D01*
X297751Y291000D01*
X297251Y290500D01*
Y290000D01*
X297751Y289500D01*
X298751D01*
X299251Y290000D01*
Y290500D01*
X298751Y291000D01*
X299251Y291500D01*
Y292000D01*
X298751Y291000D02*
X297751D01*
X324749Y319500D02*
Y322499D01*
X323249D01*
X322749Y322000D01*
Y321000D01*
X323249Y320500D01*
X324749D01*
X323749D02*
X322749Y319500D01*
X321750D02*
X320750D01*
X321250D01*
Y322499D01*
X321750Y322000D01*
X319251Y322499D02*
X317251D01*
Y322000D01*
X319251Y320000D01*
Y319500D01*
X305749Y304501D02*
Y307500D01*
X304249D01*
X303749Y307000D01*
Y306000D01*
X304249Y305500D01*
X305749D01*
X304749D02*
X303749Y304501D01*
X302750D02*
X301750D01*
X302250D01*
Y307500D01*
X302750Y307000D01*
X298251Y307500D02*
X299251Y307000D01*
X300251Y306000D01*
Y305000D01*
X299751Y304501D01*
X298751D01*
X298251Y305000D01*
Y305500D01*
X298751Y306000D01*
X300251D01*
X305749Y319500D02*
Y322499D01*
X304249D01*
X303749Y322000D01*
Y321000D01*
X304249Y320500D01*
X305749D01*
X304749D02*
X303749Y319500D01*
X302750D02*
X301750D01*
X302250D01*
Y322499D01*
X302750Y322000D01*
X298251Y322499D02*
X300251D01*
Y321000D01*
X299251Y321500D01*
X298751D01*
X298251Y321000D01*
Y320000D01*
X298751Y319500D01*
X299751D01*
X300251Y320000D01*
X146749Y32500D02*
Y35500D01*
X145249D01*
X144749Y35000D01*
Y34000D01*
X145249Y33500D01*
X146749D01*
X145749D02*
X144749Y32500D01*
X143750D02*
X142750D01*
X143250D01*
Y35500D01*
X143750Y35000D01*
X139751Y32500D02*
Y35500D01*
X141251Y34000D01*
X139251D01*
X59749Y32500D02*
Y35500D01*
X58249D01*
X57749Y35000D01*
Y34000D01*
X58249Y33500D01*
X59749D01*
X58749D02*
X57749Y32500D01*
X56750D02*
X55750D01*
X56250D01*
Y35500D01*
X56750Y35000D01*
X52251Y32500D02*
X54251D01*
X52251Y34500D01*
Y35000D01*
X52751Y35500D01*
X53751D01*
X54251Y35000D01*
X462100Y249240D02*
Y252239D01*
X460601D01*
X460101Y251739D01*
Y250740D01*
X460601Y250240D01*
X462100D01*
X461100D02*
X460101Y249240D01*
X457102Y252239D02*
X458101Y251739D01*
X459101Y250740D01*
Y249740D01*
X458601Y249240D01*
X457601D01*
X457102Y249740D01*
Y250240D01*
X457601Y250740D01*
X459101D01*
X452100Y249200D02*
Y252199D01*
X450600D01*
X450101Y251699D01*
Y250699D01*
X450600Y250200D01*
X452100D01*
X451100D02*
X450101Y249200D01*
X447102Y252199D02*
X449101D01*
Y250699D01*
X448101Y251199D01*
X447602D01*
X447102Y250699D01*
Y249700D01*
X447602Y249200D01*
X448601D01*
X449101Y249700D01*
X135749Y11501D02*
Y14500D01*
X134249D01*
X133749Y14000D01*
Y13000D01*
X134249Y12500D01*
X135749D01*
X134749D02*
X133749Y11501D01*
X132750D02*
X131750D01*
X132250D01*
Y14500D01*
X132750Y14000D01*
X130251D02*
X129751Y14500D01*
X128751D01*
X128251Y14000D01*
Y12000D01*
X128751Y11501D01*
X129751D01*
X130251Y12000D01*
Y14000D01*
X70499Y11501D02*
Y14500D01*
X69000D01*
X68500Y14000D01*
Y13000D01*
X69000Y12500D01*
X70499D01*
X69499D02*
X68500Y11501D01*
X67500Y12000D02*
X67000Y11501D01*
X66001D01*
X65501Y12000D01*
Y14000D01*
X66001Y14500D01*
X67000D01*
X67500Y14000D01*
Y13500D01*
X67000Y13000D01*
X65501D01*
X271749Y34501D02*
Y37499D01*
X270249D01*
X269749Y37000D01*
Y36000D01*
X270249Y35500D01*
X271749D01*
X270749D02*
X269749Y34501D01*
X268750D02*
X267750D01*
X268250D01*
Y37499D01*
X268750Y37000D01*
X266251D02*
X265751Y37499D01*
X264751D01*
X264251Y37000D01*
Y36500D01*
X264751Y36000D01*
X265251D01*
X264751D01*
X264251Y35500D01*
Y35000D01*
X264751Y34501D01*
X265751D01*
X266251Y35000D01*
X185249Y33500D02*
Y36500D01*
X183749D01*
X183250Y36000D01*
Y35000D01*
X183749Y34500D01*
X185249D01*
X184249D02*
X183250Y33500D01*
X182250D02*
X181250D01*
X181750D01*
Y36500D01*
X182250Y36000D01*
X179751Y33500D02*
X178751D01*
X179251D01*
Y36500D01*
X179751Y36000D01*
X260499Y11501D02*
Y14500D01*
X259000D01*
X258500Y14000D01*
Y13000D01*
X259000Y12500D01*
X260499D01*
X259500D02*
X258500Y11501D01*
X257500Y14000D02*
X257000Y14500D01*
X256001D01*
X255501Y14000D01*
Y13500D01*
X256001Y13000D01*
X255501Y12500D01*
Y12000D01*
X256001Y11501D01*
X257000D01*
X257500Y12000D01*
Y12500D01*
X257000Y13000D01*
X257500Y13500D01*
Y14000D01*
X257000Y13000D02*
X256001D01*
X195499Y11501D02*
Y14500D01*
X194000D01*
X193500Y14000D01*
Y13000D01*
X194000Y12500D01*
X195499D01*
X194500D02*
X193500Y11501D01*
X192500Y14500D02*
X190501D01*
Y14000D01*
X192500Y12000D01*
Y11501D01*
X342100Y79200D02*
Y82199D01*
X340600D01*
X340101Y81699D01*
Y80699D01*
X340600Y80200D01*
X342100D01*
X341100D02*
X340101Y79200D01*
X337601D02*
Y82199D01*
X339101Y80699D01*
X337102D01*
X327100Y79200D02*
Y82199D01*
X325601D01*
X325101Y81699D01*
Y80699D01*
X325601Y80200D01*
X327100D01*
X326100D02*
X325101Y79200D01*
X324101Y81699D02*
X323601Y82199D01*
X322602D01*
X322102Y81699D01*
Y81199D01*
X322602Y80699D01*
X323101D01*
X322602D01*
X322102Y80200D01*
Y79700D01*
X322602Y79200D01*
X323601D01*
X324101Y79700D01*
X312100Y79200D02*
Y82199D01*
X310600D01*
X310101Y81699D01*
Y80699D01*
X310600Y80200D01*
X312100D01*
X311100D02*
X310101Y79200D01*
X307102D02*
X309101D01*
X307102Y81199D01*
Y81699D01*
X307601Y82199D01*
X308601D01*
X309101Y81699D01*
X296100Y79200D02*
Y82199D01*
X294601D01*
X294101Y81699D01*
Y80699D01*
X294601Y80200D01*
X296100D01*
X295100D02*
X294101Y79200D01*
X293101D02*
X292101D01*
X292601D01*
Y82199D01*
X293101Y81699D01*
X46581Y314848D02*
Y316847D01*
X47081Y317347D01*
X48081D01*
X48580Y316847D01*
Y314848D01*
X48081Y314348D01*
X47081D01*
X47581Y315348D02*
X46581Y314348D01*
X47081D02*
X46581Y314848D01*
X45581Y314348D02*
X44582D01*
X45081D01*
Y317347D01*
X45581Y316847D01*
X62100Y392199D02*
Y389200D01*
X60101D01*
X59101Y391699D02*
X58601Y392199D01*
X57601D01*
X57102Y391699D01*
Y391199D01*
X57601Y390700D01*
X58101D01*
X57601D01*
X57102Y390200D01*
Y389700D01*
X57601Y389200D01*
X58601D01*
X59101Y389700D01*
X47100Y392199D02*
Y389200D01*
X45101D01*
X42102D02*
X44101D01*
X42102Y391199D01*
Y391699D01*
X42601Y392199D01*
X43601D01*
X44101Y391699D01*
X221999Y316499D02*
Y313500D01*
X220000D01*
X219000D02*
X218001D01*
X218500D01*
Y316499D01*
X219000Y316000D01*
X283999Y390000D02*
X284499Y390499D01*
X285499D01*
X285999Y390000D01*
Y388000D01*
X285499Y387501D01*
X284499D01*
X283999Y388000D01*
X281000Y387501D02*
X283000D01*
X281000Y389500D01*
Y390000D01*
X281500Y390499D01*
X282500D01*
X283000Y390000D01*
X278501Y387501D02*
Y390499D01*
X280001Y389000D01*
X278001D01*
X188101Y411699D02*
X188601Y412199D01*
X189600D01*
X190100Y411699D01*
Y409700D01*
X189600Y409200D01*
X188601D01*
X188101Y409700D01*
X185102Y409200D02*
X187101D01*
X185102Y411199D01*
Y411699D01*
X185601Y412199D01*
X186601D01*
X187101Y411699D01*
X184102D02*
X183602Y412199D01*
X182602D01*
X182103Y411699D01*
Y411199D01*
X182602Y410700D01*
X183102D01*
X182602D01*
X182103Y410200D01*
Y409700D01*
X182602Y409200D01*
X183602D01*
X184102Y409700D01*
X276999Y366000D02*
X277499Y366499D01*
X278499D01*
X278999Y366000D01*
Y364000D01*
X278499Y363500D01*
X277499D01*
X276999Y364000D01*
X274000Y363500D02*
X276000D01*
X274000Y365500D01*
Y366000D01*
X274500Y366499D01*
X275500D01*
X276000Y366000D01*
X271001Y363500D02*
X273001D01*
X271001Y365500D01*
Y366000D01*
X271501Y366499D01*
X272501D01*
X273001Y366000D01*
X332101Y366699D02*
X332600Y367199D01*
X333600D01*
X334100Y366699D01*
Y364700D01*
X333600Y364200D01*
X332600D01*
X332101Y364700D01*
X329102Y364200D02*
X331101D01*
X329102Y366199D01*
Y366699D01*
X329602Y367199D01*
X330601D01*
X331101Y366699D01*
X328102Y364200D02*
X327102D01*
X327602D01*
Y367199D01*
X328102Y366699D01*
X323101D02*
X323601Y367199D01*
X324600D01*
X325100Y366699D01*
Y364700D01*
X324600Y364200D01*
X323601D01*
X323101Y364700D01*
X320102Y364200D02*
X322101D01*
X320102Y366199D01*
Y366699D01*
X320602Y367199D01*
X321601D01*
X322101Y366699D01*
X319102D02*
X318602Y367199D01*
X317602D01*
X317103Y366699D01*
Y364700D01*
X317602Y364200D01*
X318602D01*
X319102Y364700D01*
Y366699D01*
X202749Y390000D02*
X203249Y390499D01*
X204249D01*
X204749Y390000D01*
Y388000D01*
X204249Y387501D01*
X203249D01*
X202749Y388000D01*
X201750Y387501D02*
X200750D01*
X201250D01*
Y390499D01*
X201750Y390000D01*
X199251Y388000D02*
X198751Y387501D01*
X197751D01*
X197251Y388000D01*
Y390000D01*
X197751Y390499D01*
X198751D01*
X199251Y390000D01*
Y389500D01*
X198751Y389000D01*
X197251D01*
X241749Y386000D02*
X242249Y386500D01*
X243249D01*
X243749Y386000D01*
Y384000D01*
X243249Y383501D01*
X242249D01*
X241749Y384000D01*
X240750Y383501D02*
X239750D01*
X240250D01*
Y386500D01*
X240750Y386000D01*
X238251D02*
X237751Y386500D01*
X236751D01*
X236251Y386000D01*
Y385500D01*
X236751Y385000D01*
X236251Y384500D01*
Y384000D01*
X236751Y383501D01*
X237751D01*
X238251Y384000D01*
Y384500D01*
X237751Y385000D01*
X238251Y385500D01*
Y386000D01*
X237751Y385000D02*
X236751D01*
X241749Y366000D02*
X242249Y366499D01*
X243249D01*
X243749Y366000D01*
Y364000D01*
X243249Y363500D01*
X242249D01*
X241749Y364000D01*
X240750Y363500D02*
X239750D01*
X240250D01*
Y366499D01*
X240750Y366000D01*
X238251Y366499D02*
X236251D01*
Y366000D01*
X238251Y364000D01*
Y363500D01*
X87601Y411699D02*
X88100Y412199D01*
X89100D01*
X89600Y411699D01*
Y409700D01*
X89100Y409200D01*
X88100D01*
X87601Y409700D01*
X86601Y409200D02*
X85601D01*
X86101D01*
Y412199D01*
X86601Y411699D01*
X82102Y412199D02*
X83102Y411699D01*
X84102Y410700D01*
Y409700D01*
X83602Y409200D01*
X82602D01*
X82102Y409700D01*
Y410200D01*
X82602Y410700D01*
X84102D01*
X226749Y366000D02*
X227249Y366499D01*
X228249D01*
X228749Y366000D01*
Y364000D01*
X228249Y363500D01*
X227249D01*
X226749Y364000D01*
X225750Y363500D02*
X224750D01*
X225250D01*
Y366499D01*
X225750Y366000D01*
X221251Y366499D02*
X223251D01*
Y365000D01*
X222251Y365500D01*
X221751D01*
X221251Y365000D01*
Y364000D01*
X221751Y363500D01*
X222751D01*
X223251Y364000D01*
X267749Y348000D02*
X268249Y348499D01*
X269249D01*
X269749Y348000D01*
Y346000D01*
X269249Y345500D01*
X268249D01*
X267749Y346000D01*
X266750Y345500D02*
X265750D01*
X266250D01*
Y348499D01*
X266750Y348000D01*
X262751Y345500D02*
Y348499D01*
X264251Y347000D01*
X262251D01*
X219249Y326000D02*
X219749Y326500D01*
X220749D01*
X221249Y326000D01*
Y324000D01*
X220749Y323500D01*
X219749D01*
X219249Y324000D01*
X218250Y323500D02*
X217250D01*
X217750D01*
Y326500D01*
X218250Y326000D01*
X215751D02*
X215251Y326500D01*
X214251D01*
X213751Y326000D01*
Y325500D01*
X214251Y325000D01*
X214751D01*
X214251D01*
X213751Y324500D01*
Y324000D01*
X214251Y323500D01*
X215251D01*
X215751Y324000D01*
X256601Y292899D02*
X257101Y293399D01*
X258100D01*
X258600Y292899D01*
Y290900D01*
X258100Y290400D01*
X257101D01*
X256601Y290900D01*
X255601Y290400D02*
X254601D01*
X255101D01*
Y293399D01*
X255601Y292899D01*
X253102Y290400D02*
X252102D01*
X252602D01*
Y293399D01*
X253102Y292899D01*
X267601Y291699D02*
X268101Y292199D01*
X269100D01*
X269600Y291699D01*
Y289700D01*
X269100Y289200D01*
X268101D01*
X267601Y289700D01*
X266601Y289200D02*
X265601D01*
X266101D01*
Y292199D01*
X266601Y291699D01*
X264102D02*
X263602Y292199D01*
X262602D01*
X262102Y291699D01*
Y289700D01*
X262602Y289200D01*
X263602D01*
X264102Y289700D01*
Y291699D01*
X220500Y306000D02*
X221000Y306500D01*
X221999D01*
X222499Y306000D01*
Y304000D01*
X221999Y303501D01*
X221000D01*
X220500Y304000D01*
X219500D02*
X219000Y303501D01*
X218001D01*
X217501Y304000D01*
Y306000D01*
X218001Y306500D01*
X219000D01*
X219500Y306000D01*
Y305500D01*
X219000Y305000D01*
X217501D01*
X96801Y108399D02*
X97300Y108899D01*
X98300D01*
X98800Y108399D01*
Y106400D01*
X98300Y105900D01*
X97300D01*
X96801Y106400D01*
X95801Y108899D02*
X93802D01*
Y108399D01*
X95801Y106400D01*
Y105900D01*
X113500Y14000D02*
X114000Y14500D01*
X114999D01*
X115499Y14000D01*
Y12000D01*
X114999Y11501D01*
X114000D01*
X113500Y12000D01*
X110501Y14500D02*
X111501Y14000D01*
X112500Y13000D01*
Y12000D01*
X112000Y11501D01*
X111001D01*
X110501Y12000D01*
Y12500D01*
X111001Y13000D01*
X112500D01*
X88500Y14000D02*
X89000Y14500D01*
X89999D01*
X90499Y14000D01*
Y12000D01*
X89999Y11501D01*
X89000D01*
X88500Y12000D01*
X85501Y14500D02*
X87500D01*
Y13000D01*
X86501Y13500D01*
X86001D01*
X85501Y13000D01*
Y12000D01*
X86001Y11501D01*
X87000D01*
X87500Y12000D01*
X420500Y415000D02*
X421000Y415499D01*
X421999D01*
X422499Y415000D01*
Y413000D01*
X421999Y412500D01*
X421000D01*
X420500Y413000D01*
X417501Y412500D02*
X419500D01*
X417501Y414500D01*
Y415000D01*
X418001Y415499D01*
X419000D01*
X419500Y415000D01*
X430000Y416000D02*
X430500Y416500D01*
X431499D01*
X431999Y416000D01*
Y414000D01*
X431499Y413500D01*
X430500D01*
X430000Y414000D01*
X429000Y413500D02*
X428001D01*
X428501D01*
Y416500D01*
X429000Y416000D01*
X221801Y108399D02*
X222301Y108899D01*
X223300D01*
X223800Y108399D01*
Y106400D01*
X223300Y105900D01*
X222301D01*
X221801Y106400D01*
X220801Y108399D02*
X220301Y108899D01*
X219302D01*
X218802Y108399D01*
Y107899D01*
X219302Y107399D01*
X218802Y106900D01*
Y106400D01*
X219302Y105900D01*
X220301D01*
X220801Y106400D01*
Y106900D01*
X220301Y107399D01*
X220801Y107899D01*
Y108399D01*
X220301Y107399D02*
X219302D01*
X238500Y14000D02*
X239000Y14500D01*
X239999D01*
X240499Y14000D01*
Y12000D01*
X239999Y11501D01*
X239000D01*
X238500Y12000D01*
X236001Y11501D02*
Y14500D01*
X237500Y13000D01*
X235501D01*
X213500Y14000D02*
X214000Y14500D01*
X214999D01*
X215499Y14000D01*
Y12000D01*
X214999Y11501D01*
X214000D01*
X213500Y12000D01*
X212500Y14000D02*
X212000Y14500D01*
X211001D01*
X210501Y14000D01*
Y13500D01*
X211001Y13000D01*
X211501D01*
X211001D01*
X210501Y12500D01*
Y12000D01*
X211001Y11501D01*
X212000D01*
X212500Y12000D01*
D62*
X238819Y394094D02*
G03*
X238819Y394094I-1181J0D01*
G01*
M02*
